<mxfile host="app.diagrams.net" modified="2023-11-07T14:09:54.616Z" agent="Mozilla/5.0 (X11; Ubuntu; Linux x86_64; rv:109.0) Gecko/20100101 Firefox/118.0" etag="7awqmsYYvOVQQe_Fgk9L" version="21.1.2" type="github">
  <diagram name="PÃ¡gina-1" id="OY3IVHLWM3ku5iCI1eiu">
    <mxGraphModel dx="890" dy="398" grid="1" gridSize="10" guides="1" tooltips="1" connect="1" arrows="1" fold="1" page="1" pageScale="1" pageWidth="827" pageHeight="1169" math="0" shadow="0">
      <root>
        <mxCell id="0" />
        <mxCell id="1" parent="0" />
        <mxCell id="7hdt7lljPyfR1eicb4f4-16" value="" style="group" vertex="1" connectable="0" parent="1">
          <mxGeometry x="120" y="200" width="240" height="200" as="geometry" />
        </mxCell>
        <mxCell id="7hdt7lljPyfR1eicb4f4-14" value="" style="rounded=0;whiteSpace=wrap;html=1;" vertex="1" parent="7hdt7lljPyfR1eicb4f4-16">
          <mxGeometry width="120" height="120" as="geometry" />
        </mxCell>
        <mxCell id="7hdt7lljPyfR1eicb4f4-15" value="" style="rounded=0;whiteSpace=wrap;html=1;" vertex="1" parent="7hdt7lljPyfR1eicb4f4-16">
          <mxGeometry x="120" width="120" height="120" as="geometry" />
        </mxCell>
        <mxCell id="7hdt7lljPyfR1eicb4f4-17" value="T1" style="shape=table;startSize=30;container=1;collapsible=0;childLayout=tableLayout;strokeColor=default;fontSize=16;" vertex="1" parent="7hdt7lljPyfR1eicb4f4-16">
          <mxGeometry x="130" y="10" width="40" height="40" as="geometry" />
        </mxCell>
        <mxCell id="7hdt7lljPyfR1eicb4f4-18" value="" style="shape=tableRow;horizontal=0;startSize=0;swimlaneHead=0;swimlaneBody=0;strokeColor=inherit;top=0;left=0;bottom=0;right=0;collapsible=0;dropTarget=0;fillColor=none;points=[[0,0.5],[1,0.5]];portConstraint=eastwest;fontSize=16;" vertex="1" parent="7hdt7lljPyfR1eicb4f4-17">
          <mxGeometry y="30" width="40" height="4" as="geometry" />
        </mxCell>
        <mxCell id="7hdt7lljPyfR1eicb4f4-19" value="" style="shape=partialRectangle;html=1;whiteSpace=wrap;connectable=0;strokeColor=inherit;overflow=hidden;fillColor=none;top=0;left=0;bottom=0;right=0;pointerEvents=1;fontSize=16;" vertex="1" parent="7hdt7lljPyfR1eicb4f4-18">
          <mxGeometry width="14" height="4" as="geometry">
            <mxRectangle width="14" height="4" as="alternateBounds" />
          </mxGeometry>
        </mxCell>
        <mxCell id="7hdt7lljPyfR1eicb4f4-20" value="" style="shape=partialRectangle;html=1;whiteSpace=wrap;connectable=0;strokeColor=inherit;overflow=hidden;fillColor=none;top=0;left=0;bottom=0;right=0;pointerEvents=1;fontSize=16;" vertex="1" parent="7hdt7lljPyfR1eicb4f4-18">
          <mxGeometry x="14" width="12" height="4" as="geometry">
            <mxRectangle width="12" height="4" as="alternateBounds" />
          </mxGeometry>
        </mxCell>
        <mxCell id="7hdt7lljPyfR1eicb4f4-21" value="" style="shape=partialRectangle;html=1;whiteSpace=wrap;connectable=0;strokeColor=inherit;overflow=hidden;fillColor=none;top=0;left=0;bottom=0;right=0;pointerEvents=1;fontSize=16;" vertex="1" parent="7hdt7lljPyfR1eicb4f4-18">
          <mxGeometry x="26" width="14" height="4" as="geometry">
            <mxRectangle width="14" height="4" as="alternateBounds" />
          </mxGeometry>
        </mxCell>
        <mxCell id="7hdt7lljPyfR1eicb4f4-22" value="" style="shape=tableRow;horizontal=0;startSize=0;swimlaneHead=0;swimlaneBody=0;strokeColor=inherit;top=0;left=0;bottom=0;right=0;collapsible=0;dropTarget=0;fillColor=none;points=[[0,0.5],[1,0.5]];portConstraint=eastwest;fontSize=16;" vertex="1" parent="7hdt7lljPyfR1eicb4f4-17">
          <mxGeometry y="34" width="40" height="3" as="geometry" />
        </mxCell>
        <mxCell id="7hdt7lljPyfR1eicb4f4-23" value="" style="shape=partialRectangle;html=1;whiteSpace=wrap;connectable=0;strokeColor=inherit;overflow=hidden;fillColor=none;top=0;left=0;bottom=0;right=0;pointerEvents=1;fontSize=16;" vertex="1" parent="7hdt7lljPyfR1eicb4f4-22">
          <mxGeometry width="14" height="3" as="geometry">
            <mxRectangle width="14" height="3" as="alternateBounds" />
          </mxGeometry>
        </mxCell>
        <mxCell id="7hdt7lljPyfR1eicb4f4-24" value="" style="shape=partialRectangle;html=1;whiteSpace=wrap;connectable=0;strokeColor=inherit;overflow=hidden;fillColor=none;top=0;left=0;bottom=0;right=0;pointerEvents=1;fontSize=16;" vertex="1" parent="7hdt7lljPyfR1eicb4f4-22">
          <mxGeometry x="14" width="12" height="3" as="geometry">
            <mxRectangle width="12" height="3" as="alternateBounds" />
          </mxGeometry>
        </mxCell>
        <mxCell id="7hdt7lljPyfR1eicb4f4-25" value="" style="shape=partialRectangle;html=1;whiteSpace=wrap;connectable=0;strokeColor=inherit;overflow=hidden;fillColor=none;top=0;left=0;bottom=0;right=0;pointerEvents=1;fontSize=16;" vertex="1" parent="7hdt7lljPyfR1eicb4f4-22">
          <mxGeometry x="26" width="14" height="3" as="geometry">
            <mxRectangle width="14" height="3" as="alternateBounds" />
          </mxGeometry>
        </mxCell>
        <mxCell id="7hdt7lljPyfR1eicb4f4-26" value="" style="shape=tableRow;horizontal=0;startSize=0;swimlaneHead=0;swimlaneBody=0;strokeColor=inherit;top=0;left=0;bottom=0;right=0;collapsible=0;dropTarget=0;fillColor=none;points=[[0,0.5],[1,0.5]];portConstraint=eastwest;fontSize=16;" vertex="1" parent="7hdt7lljPyfR1eicb4f4-17">
          <mxGeometry y="37" width="40" height="3" as="geometry" />
        </mxCell>
        <mxCell id="7hdt7lljPyfR1eicb4f4-27" value="" style="shape=partialRectangle;html=1;whiteSpace=wrap;connectable=0;strokeColor=inherit;overflow=hidden;fillColor=none;top=0;left=0;bottom=0;right=0;pointerEvents=1;fontSize=16;" vertex="1" parent="7hdt7lljPyfR1eicb4f4-26">
          <mxGeometry width="14" height="3" as="geometry">
            <mxRectangle width="14" height="3" as="alternateBounds" />
          </mxGeometry>
        </mxCell>
        <mxCell id="7hdt7lljPyfR1eicb4f4-28" value="" style="shape=partialRectangle;html=1;whiteSpace=wrap;connectable=0;strokeColor=inherit;overflow=hidden;fillColor=none;top=0;left=0;bottom=0;right=0;pointerEvents=1;fontSize=16;" vertex="1" parent="7hdt7lljPyfR1eicb4f4-26">
          <mxGeometry x="14" width="12" height="3" as="geometry">
            <mxRectangle width="12" height="3" as="alternateBounds" />
          </mxGeometry>
        </mxCell>
        <mxCell id="7hdt7lljPyfR1eicb4f4-29" value="" style="shape=partialRectangle;html=1;whiteSpace=wrap;connectable=0;strokeColor=inherit;overflow=hidden;fillColor=none;top=0;left=0;bottom=0;right=0;pointerEvents=1;fontSize=16;" vertex="1" parent="7hdt7lljPyfR1eicb4f4-26">
          <mxGeometry x="26" width="14" height="3" as="geometry">
            <mxRectangle width="14" height="3" as="alternateBounds" />
          </mxGeometry>
        </mxCell>
        <mxCell id="7hdt7lljPyfR1eicb4f4-30" value="T2" style="shape=table;startSize=30;container=1;collapsible=0;childLayout=tableLayout;strokeColor=default;fontSize=16;" vertex="1" parent="7hdt7lljPyfR1eicb4f4-16">
          <mxGeometry x="190" y="10" width="40" height="40" as="geometry" />
        </mxCell>
        <mxCell id="7hdt7lljPyfR1eicb4f4-31" value="" style="shape=tableRow;horizontal=0;startSize=0;swimlaneHead=0;swimlaneBody=0;strokeColor=inherit;top=0;left=0;bottom=0;right=0;collapsible=0;dropTarget=0;fillColor=none;points=[[0,0.5],[1,0.5]];portConstraint=eastwest;fontSize=16;" vertex="1" parent="7hdt7lljPyfR1eicb4f4-30">
          <mxGeometry y="30" width="40" height="4" as="geometry" />
        </mxCell>
        <mxCell id="7hdt7lljPyfR1eicb4f4-32" value="" style="shape=partialRectangle;html=1;whiteSpace=wrap;connectable=0;strokeColor=inherit;overflow=hidden;fillColor=none;top=0;left=0;bottom=0;right=0;pointerEvents=1;fontSize=16;" vertex="1" parent="7hdt7lljPyfR1eicb4f4-31">
          <mxGeometry width="14" height="4" as="geometry">
            <mxRectangle width="14" height="4" as="alternateBounds" />
          </mxGeometry>
        </mxCell>
        <mxCell id="7hdt7lljPyfR1eicb4f4-33" value="" style="shape=partialRectangle;html=1;whiteSpace=wrap;connectable=0;strokeColor=inherit;overflow=hidden;fillColor=none;top=0;left=0;bottom=0;right=0;pointerEvents=1;fontSize=16;" vertex="1" parent="7hdt7lljPyfR1eicb4f4-31">
          <mxGeometry x="14" width="12" height="4" as="geometry">
            <mxRectangle width="12" height="4" as="alternateBounds" />
          </mxGeometry>
        </mxCell>
        <mxCell id="7hdt7lljPyfR1eicb4f4-34" value="" style="shape=partialRectangle;html=1;whiteSpace=wrap;connectable=0;strokeColor=inherit;overflow=hidden;fillColor=none;top=0;left=0;bottom=0;right=0;pointerEvents=1;fontSize=16;" vertex="1" parent="7hdt7lljPyfR1eicb4f4-31">
          <mxGeometry x="26" width="14" height="4" as="geometry">
            <mxRectangle width="14" height="4" as="alternateBounds" />
          </mxGeometry>
        </mxCell>
        <mxCell id="7hdt7lljPyfR1eicb4f4-35" value="" style="shape=tableRow;horizontal=0;startSize=0;swimlaneHead=0;swimlaneBody=0;strokeColor=inherit;top=0;left=0;bottom=0;right=0;collapsible=0;dropTarget=0;fillColor=none;points=[[0,0.5],[1,0.5]];portConstraint=eastwest;fontSize=16;" vertex="1" parent="7hdt7lljPyfR1eicb4f4-30">
          <mxGeometry y="34" width="40" height="3" as="geometry" />
        </mxCell>
        <mxCell id="7hdt7lljPyfR1eicb4f4-36" value="" style="shape=partialRectangle;html=1;whiteSpace=wrap;connectable=0;strokeColor=inherit;overflow=hidden;fillColor=none;top=0;left=0;bottom=0;right=0;pointerEvents=1;fontSize=16;" vertex="1" parent="7hdt7lljPyfR1eicb4f4-35">
          <mxGeometry width="14" height="3" as="geometry">
            <mxRectangle width="14" height="3" as="alternateBounds" />
          </mxGeometry>
        </mxCell>
        <mxCell id="7hdt7lljPyfR1eicb4f4-37" value="" style="shape=partialRectangle;html=1;whiteSpace=wrap;connectable=0;strokeColor=inherit;overflow=hidden;fillColor=none;top=0;left=0;bottom=0;right=0;pointerEvents=1;fontSize=16;" vertex="1" parent="7hdt7lljPyfR1eicb4f4-35">
          <mxGeometry x="14" width="12" height="3" as="geometry">
            <mxRectangle width="12" height="3" as="alternateBounds" />
          </mxGeometry>
        </mxCell>
        <mxCell id="7hdt7lljPyfR1eicb4f4-38" value="" style="shape=partialRectangle;html=1;whiteSpace=wrap;connectable=0;strokeColor=inherit;overflow=hidden;fillColor=none;top=0;left=0;bottom=0;right=0;pointerEvents=1;fontSize=16;" vertex="1" parent="7hdt7lljPyfR1eicb4f4-35">
          <mxGeometry x="26" width="14" height="3" as="geometry">
            <mxRectangle width="14" height="3" as="alternateBounds" />
          </mxGeometry>
        </mxCell>
        <mxCell id="7hdt7lljPyfR1eicb4f4-39" value="" style="shape=tableRow;horizontal=0;startSize=0;swimlaneHead=0;swimlaneBody=0;strokeColor=inherit;top=0;left=0;bottom=0;right=0;collapsible=0;dropTarget=0;fillColor=none;points=[[0,0.5],[1,0.5]];portConstraint=eastwest;fontSize=16;" vertex="1" parent="7hdt7lljPyfR1eicb4f4-30">
          <mxGeometry y="37" width="40" height="3" as="geometry" />
        </mxCell>
        <mxCell id="7hdt7lljPyfR1eicb4f4-40" value="" style="shape=partialRectangle;html=1;whiteSpace=wrap;connectable=0;strokeColor=inherit;overflow=hidden;fillColor=none;top=0;left=0;bottom=0;right=0;pointerEvents=1;fontSize=16;" vertex="1" parent="7hdt7lljPyfR1eicb4f4-39">
          <mxGeometry width="14" height="3" as="geometry">
            <mxRectangle width="14" height="3" as="alternateBounds" />
          </mxGeometry>
        </mxCell>
        <mxCell id="7hdt7lljPyfR1eicb4f4-41" value="" style="shape=partialRectangle;html=1;whiteSpace=wrap;connectable=0;strokeColor=inherit;overflow=hidden;fillColor=none;top=0;left=0;bottom=0;right=0;pointerEvents=1;fontSize=16;" vertex="1" parent="7hdt7lljPyfR1eicb4f4-39">
          <mxGeometry x="14" width="12" height="3" as="geometry">
            <mxRectangle width="12" height="3" as="alternateBounds" />
          </mxGeometry>
        </mxCell>
        <mxCell id="7hdt7lljPyfR1eicb4f4-42" value="" style="shape=partialRectangle;html=1;whiteSpace=wrap;connectable=0;strokeColor=inherit;overflow=hidden;fillColor=none;top=0;left=0;bottom=0;right=0;pointerEvents=1;fontSize=16;" vertex="1" parent="7hdt7lljPyfR1eicb4f4-39">
          <mxGeometry x="26" width="14" height="3" as="geometry">
            <mxRectangle width="14" height="3" as="alternateBounds" />
          </mxGeometry>
        </mxCell>
        <mxCell id="7hdt7lljPyfR1eicb4f4-43" value="T3" style="shape=table;startSize=30;container=1;collapsible=0;childLayout=tableLayout;strokeColor=default;fontSize=16;" vertex="1" parent="7hdt7lljPyfR1eicb4f4-16">
          <mxGeometry x="130" y="70" width="40" height="40" as="geometry" />
        </mxCell>
        <mxCell id="7hdt7lljPyfR1eicb4f4-44" value="" style="shape=tableRow;horizontal=0;startSize=0;swimlaneHead=0;swimlaneBody=0;strokeColor=inherit;top=0;left=0;bottom=0;right=0;collapsible=0;dropTarget=0;fillColor=none;points=[[0,0.5],[1,0.5]];portConstraint=eastwest;fontSize=16;" vertex="1" parent="7hdt7lljPyfR1eicb4f4-43">
          <mxGeometry y="30" width="40" height="4" as="geometry" />
        </mxCell>
        <mxCell id="7hdt7lljPyfR1eicb4f4-45" value="" style="shape=partialRectangle;html=1;whiteSpace=wrap;connectable=0;strokeColor=inherit;overflow=hidden;fillColor=none;top=0;left=0;bottom=0;right=0;pointerEvents=1;fontSize=16;" vertex="1" parent="7hdt7lljPyfR1eicb4f4-44">
          <mxGeometry width="14" height="4" as="geometry">
            <mxRectangle width="14" height="4" as="alternateBounds" />
          </mxGeometry>
        </mxCell>
        <mxCell id="7hdt7lljPyfR1eicb4f4-46" value="" style="shape=partialRectangle;html=1;whiteSpace=wrap;connectable=0;strokeColor=inherit;overflow=hidden;fillColor=none;top=0;left=0;bottom=0;right=0;pointerEvents=1;fontSize=16;" vertex="1" parent="7hdt7lljPyfR1eicb4f4-44">
          <mxGeometry x="14" width="12" height="4" as="geometry">
            <mxRectangle width="12" height="4" as="alternateBounds" />
          </mxGeometry>
        </mxCell>
        <mxCell id="7hdt7lljPyfR1eicb4f4-47" value="" style="shape=partialRectangle;html=1;whiteSpace=wrap;connectable=0;strokeColor=inherit;overflow=hidden;fillColor=none;top=0;left=0;bottom=0;right=0;pointerEvents=1;fontSize=16;" vertex="1" parent="7hdt7lljPyfR1eicb4f4-44">
          <mxGeometry x="26" width="14" height="4" as="geometry">
            <mxRectangle width="14" height="4" as="alternateBounds" />
          </mxGeometry>
        </mxCell>
        <mxCell id="7hdt7lljPyfR1eicb4f4-48" value="" style="shape=tableRow;horizontal=0;startSize=0;swimlaneHead=0;swimlaneBody=0;strokeColor=inherit;top=0;left=0;bottom=0;right=0;collapsible=0;dropTarget=0;fillColor=none;points=[[0,0.5],[1,0.5]];portConstraint=eastwest;fontSize=16;" vertex="1" parent="7hdt7lljPyfR1eicb4f4-43">
          <mxGeometry y="34" width="40" height="3" as="geometry" />
        </mxCell>
        <mxCell id="7hdt7lljPyfR1eicb4f4-49" value="" style="shape=partialRectangle;html=1;whiteSpace=wrap;connectable=0;strokeColor=inherit;overflow=hidden;fillColor=none;top=0;left=0;bottom=0;right=0;pointerEvents=1;fontSize=16;" vertex="1" parent="7hdt7lljPyfR1eicb4f4-48">
          <mxGeometry width="14" height="3" as="geometry">
            <mxRectangle width="14" height="3" as="alternateBounds" />
          </mxGeometry>
        </mxCell>
        <mxCell id="7hdt7lljPyfR1eicb4f4-50" value="" style="shape=partialRectangle;html=1;whiteSpace=wrap;connectable=0;strokeColor=inherit;overflow=hidden;fillColor=none;top=0;left=0;bottom=0;right=0;pointerEvents=1;fontSize=16;" vertex="1" parent="7hdt7lljPyfR1eicb4f4-48">
          <mxGeometry x="14" width="12" height="3" as="geometry">
            <mxRectangle width="12" height="3" as="alternateBounds" />
          </mxGeometry>
        </mxCell>
        <mxCell id="7hdt7lljPyfR1eicb4f4-51" value="" style="shape=partialRectangle;html=1;whiteSpace=wrap;connectable=0;strokeColor=inherit;overflow=hidden;fillColor=none;top=0;left=0;bottom=0;right=0;pointerEvents=1;fontSize=16;" vertex="1" parent="7hdt7lljPyfR1eicb4f4-48">
          <mxGeometry x="26" width="14" height="3" as="geometry">
            <mxRectangle width="14" height="3" as="alternateBounds" />
          </mxGeometry>
        </mxCell>
        <mxCell id="7hdt7lljPyfR1eicb4f4-52" value="" style="shape=tableRow;horizontal=0;startSize=0;swimlaneHead=0;swimlaneBody=0;strokeColor=inherit;top=0;left=0;bottom=0;right=0;collapsible=0;dropTarget=0;fillColor=none;points=[[0,0.5],[1,0.5]];portConstraint=eastwest;fontSize=16;" vertex="1" parent="7hdt7lljPyfR1eicb4f4-43">
          <mxGeometry y="37" width="40" height="3" as="geometry" />
        </mxCell>
        <mxCell id="7hdt7lljPyfR1eicb4f4-53" value="" style="shape=partialRectangle;html=1;whiteSpace=wrap;connectable=0;strokeColor=inherit;overflow=hidden;fillColor=none;top=0;left=0;bottom=0;right=0;pointerEvents=1;fontSize=16;" vertex="1" parent="7hdt7lljPyfR1eicb4f4-52">
          <mxGeometry width="14" height="3" as="geometry">
            <mxRectangle width="14" height="3" as="alternateBounds" />
          </mxGeometry>
        </mxCell>
        <mxCell id="7hdt7lljPyfR1eicb4f4-54" value="" style="shape=partialRectangle;html=1;whiteSpace=wrap;connectable=0;strokeColor=inherit;overflow=hidden;fillColor=none;top=0;left=0;bottom=0;right=0;pointerEvents=1;fontSize=16;" vertex="1" parent="7hdt7lljPyfR1eicb4f4-52">
          <mxGeometry x="14" width="12" height="3" as="geometry">
            <mxRectangle width="12" height="3" as="alternateBounds" />
          </mxGeometry>
        </mxCell>
        <mxCell id="7hdt7lljPyfR1eicb4f4-55" value="" style="shape=partialRectangle;html=1;whiteSpace=wrap;connectable=0;strokeColor=inherit;overflow=hidden;fillColor=none;top=0;left=0;bottom=0;right=0;pointerEvents=1;fontSize=16;" vertex="1" parent="7hdt7lljPyfR1eicb4f4-52">
          <mxGeometry x="26" width="14" height="3" as="geometry">
            <mxRectangle width="14" height="3" as="alternateBounds" />
          </mxGeometry>
        </mxCell>
        <mxCell id="7hdt7lljPyfR1eicb4f4-56" value="T4" style="shape=table;startSize=30;container=1;collapsible=0;childLayout=tableLayout;strokeColor=default;fontSize=16;" vertex="1" parent="7hdt7lljPyfR1eicb4f4-16">
          <mxGeometry x="190" y="70" width="40" height="40" as="geometry" />
        </mxCell>
        <mxCell id="7hdt7lljPyfR1eicb4f4-57" value="" style="shape=tableRow;horizontal=0;startSize=0;swimlaneHead=0;swimlaneBody=0;strokeColor=inherit;top=0;left=0;bottom=0;right=0;collapsible=0;dropTarget=0;fillColor=none;points=[[0,0.5],[1,0.5]];portConstraint=eastwest;fontSize=16;" vertex="1" parent="7hdt7lljPyfR1eicb4f4-56">
          <mxGeometry y="30" width="40" height="4" as="geometry" />
        </mxCell>
        <mxCell id="7hdt7lljPyfR1eicb4f4-58" value="" style="shape=partialRectangle;html=1;whiteSpace=wrap;connectable=0;strokeColor=inherit;overflow=hidden;fillColor=none;top=0;left=0;bottom=0;right=0;pointerEvents=1;fontSize=16;" vertex="1" parent="7hdt7lljPyfR1eicb4f4-57">
          <mxGeometry width="14" height="4" as="geometry">
            <mxRectangle width="14" height="4" as="alternateBounds" />
          </mxGeometry>
        </mxCell>
        <mxCell id="7hdt7lljPyfR1eicb4f4-59" value="" style="shape=partialRectangle;html=1;whiteSpace=wrap;connectable=0;strokeColor=inherit;overflow=hidden;fillColor=none;top=0;left=0;bottom=0;right=0;pointerEvents=1;fontSize=16;" vertex="1" parent="7hdt7lljPyfR1eicb4f4-57">
          <mxGeometry x="14" width="12" height="4" as="geometry">
            <mxRectangle width="12" height="4" as="alternateBounds" />
          </mxGeometry>
        </mxCell>
        <mxCell id="7hdt7lljPyfR1eicb4f4-60" value="" style="shape=partialRectangle;html=1;whiteSpace=wrap;connectable=0;strokeColor=inherit;overflow=hidden;fillColor=none;top=0;left=0;bottom=0;right=0;pointerEvents=1;fontSize=16;" vertex="1" parent="7hdt7lljPyfR1eicb4f4-57">
          <mxGeometry x="26" width="14" height="4" as="geometry">
            <mxRectangle width="14" height="4" as="alternateBounds" />
          </mxGeometry>
        </mxCell>
        <mxCell id="7hdt7lljPyfR1eicb4f4-61" value="" style="shape=tableRow;horizontal=0;startSize=0;swimlaneHead=0;swimlaneBody=0;strokeColor=inherit;top=0;left=0;bottom=0;right=0;collapsible=0;dropTarget=0;fillColor=none;points=[[0,0.5],[1,0.5]];portConstraint=eastwest;fontSize=16;" vertex="1" parent="7hdt7lljPyfR1eicb4f4-56">
          <mxGeometry y="34" width="40" height="3" as="geometry" />
        </mxCell>
        <mxCell id="7hdt7lljPyfR1eicb4f4-62" value="" style="shape=partialRectangle;html=1;whiteSpace=wrap;connectable=0;strokeColor=inherit;overflow=hidden;fillColor=none;top=0;left=0;bottom=0;right=0;pointerEvents=1;fontSize=16;" vertex="1" parent="7hdt7lljPyfR1eicb4f4-61">
          <mxGeometry width="14" height="3" as="geometry">
            <mxRectangle width="14" height="3" as="alternateBounds" />
          </mxGeometry>
        </mxCell>
        <mxCell id="7hdt7lljPyfR1eicb4f4-63" value="" style="shape=partialRectangle;html=1;whiteSpace=wrap;connectable=0;strokeColor=inherit;overflow=hidden;fillColor=none;top=0;left=0;bottom=0;right=0;pointerEvents=1;fontSize=16;" vertex="1" parent="7hdt7lljPyfR1eicb4f4-61">
          <mxGeometry x="14" width="12" height="3" as="geometry">
            <mxRectangle width="12" height="3" as="alternateBounds" />
          </mxGeometry>
        </mxCell>
        <mxCell id="7hdt7lljPyfR1eicb4f4-64" value="" style="shape=partialRectangle;html=1;whiteSpace=wrap;connectable=0;strokeColor=inherit;overflow=hidden;fillColor=none;top=0;left=0;bottom=0;right=0;pointerEvents=1;fontSize=16;" vertex="1" parent="7hdt7lljPyfR1eicb4f4-61">
          <mxGeometry x="26" width="14" height="3" as="geometry">
            <mxRectangle width="14" height="3" as="alternateBounds" />
          </mxGeometry>
        </mxCell>
        <mxCell id="7hdt7lljPyfR1eicb4f4-65" value="" style="shape=tableRow;horizontal=0;startSize=0;swimlaneHead=0;swimlaneBody=0;strokeColor=inherit;top=0;left=0;bottom=0;right=0;collapsible=0;dropTarget=0;fillColor=none;points=[[0,0.5],[1,0.5]];portConstraint=eastwest;fontSize=16;" vertex="1" parent="7hdt7lljPyfR1eicb4f4-56">
          <mxGeometry y="37" width="40" height="3" as="geometry" />
        </mxCell>
        <mxCell id="7hdt7lljPyfR1eicb4f4-66" value="" style="shape=partialRectangle;html=1;whiteSpace=wrap;connectable=0;strokeColor=inherit;overflow=hidden;fillColor=none;top=0;left=0;bottom=0;right=0;pointerEvents=1;fontSize=16;" vertex="1" parent="7hdt7lljPyfR1eicb4f4-65">
          <mxGeometry width="14" height="3" as="geometry">
            <mxRectangle width="14" height="3" as="alternateBounds" />
          </mxGeometry>
        </mxCell>
        <mxCell id="7hdt7lljPyfR1eicb4f4-67" value="" style="shape=partialRectangle;html=1;whiteSpace=wrap;connectable=0;strokeColor=inherit;overflow=hidden;fillColor=none;top=0;left=0;bottom=0;right=0;pointerEvents=1;fontSize=16;" vertex="1" parent="7hdt7lljPyfR1eicb4f4-65">
          <mxGeometry x="14" width="12" height="3" as="geometry">
            <mxRectangle width="12" height="3" as="alternateBounds" />
          </mxGeometry>
        </mxCell>
        <mxCell id="7hdt7lljPyfR1eicb4f4-68" value="" style="shape=partialRectangle;html=1;whiteSpace=wrap;connectable=0;strokeColor=inherit;overflow=hidden;fillColor=none;top=0;left=0;bottom=0;right=0;pointerEvents=1;fontSize=16;" vertex="1" parent="7hdt7lljPyfR1eicb4f4-65">
          <mxGeometry x="26" width="14" height="3" as="geometry">
            <mxRectangle width="14" height="3" as="alternateBounds" />
          </mxGeometry>
        </mxCell>
        <mxCell id="7hdt7lljPyfR1eicb4f4-69" value="" style="endArrow=none;html=1;rounded=0;" edge="1" parent="7hdt7lljPyfR1eicb4f4-16">
          <mxGeometry width="50" height="50" relative="1" as="geometry">
            <mxPoint x="20" y="60.48000000000002" as="sourcePoint" />
            <mxPoint x="60" y="60.48000000000002" as="targetPoint" />
          </mxGeometry>
        </mxCell>
        <mxCell id="7hdt7lljPyfR1eicb4f4-70" value="" style="endArrow=none;html=1;rounded=0;" edge="1" parent="7hdt7lljPyfR1eicb4f4-16">
          <mxGeometry width="50" height="50" relative="1" as="geometry">
            <mxPoint x="20" y="70.48000000000002" as="sourcePoint" />
            <mxPoint x="60" y="70.48000000000002" as="targetPoint" />
          </mxGeometry>
        </mxCell>
        <mxCell id="7hdt7lljPyfR1eicb4f4-71" value="" style="endArrow=none;html=1;rounded=0;" edge="1" parent="7hdt7lljPyfR1eicb4f4-16">
          <mxGeometry width="50" height="50" relative="1" as="geometry">
            <mxPoint x="20" y="80.48000000000002" as="sourcePoint" />
            <mxPoint x="60" y="80.48000000000002" as="targetPoint" />
          </mxGeometry>
        </mxCell>
        <mxCell id="7hdt7lljPyfR1eicb4f4-72" value="" style="endArrow=none;html=1;rounded=0;" edge="1" parent="7hdt7lljPyfR1eicb4f4-16">
          <mxGeometry width="50" height="50" relative="1" as="geometry">
            <mxPoint x="20" y="90.48000000000002" as="sourcePoint" />
            <mxPoint x="60" y="90.48000000000002" as="targetPoint" />
          </mxGeometry>
        </mxCell>
        <mxCell id="7hdt7lljPyfR1eicb4f4-73" value="" style="endArrow=none;html=1;rounded=0;" edge="1" parent="7hdt7lljPyfR1eicb4f4-16" source="7hdt7lljPyfR1eicb4f4-89">
          <mxGeometry width="50" height="50" relative="1" as="geometry">
            <mxPoint x="20" y="100.48000000000002" as="sourcePoint" />
            <mxPoint x="60" y="100.48000000000002" as="targetPoint" />
          </mxGeometry>
        </mxCell>
        <mxCell id="7hdt7lljPyfR1eicb4f4-74" value="" style="endArrow=none;html=1;rounded=0;" edge="1" parent="7hdt7lljPyfR1eicb4f4-16">
          <mxGeometry width="50" height="50" relative="1" as="geometry">
            <mxPoint x="20" y="10.47999999999999" as="sourcePoint" />
            <mxPoint x="60" y="10.47999999999999" as="targetPoint" />
          </mxGeometry>
        </mxCell>
        <mxCell id="7hdt7lljPyfR1eicb4f4-75" value="" style="endArrow=none;html=1;rounded=0;" edge="1" parent="7hdt7lljPyfR1eicb4f4-16">
          <mxGeometry width="50" height="50" relative="1" as="geometry">
            <mxPoint x="20" y="20.47999999999999" as="sourcePoint" />
            <mxPoint x="60" y="20.47999999999999" as="targetPoint" />
          </mxGeometry>
        </mxCell>
        <mxCell id="7hdt7lljPyfR1eicb4f4-76" value="" style="endArrow=none;html=1;rounded=0;" edge="1" parent="7hdt7lljPyfR1eicb4f4-16">
          <mxGeometry width="50" height="50" relative="1" as="geometry">
            <mxPoint x="20" y="30.47999999999999" as="sourcePoint" />
            <mxPoint x="60" y="30.47999999999999" as="targetPoint" />
          </mxGeometry>
        </mxCell>
        <mxCell id="7hdt7lljPyfR1eicb4f4-77" value="" style="endArrow=none;html=1;rounded=0;" edge="1" parent="7hdt7lljPyfR1eicb4f4-16">
          <mxGeometry width="50" height="50" relative="1" as="geometry">
            <mxPoint x="20" y="40.47999999999999" as="sourcePoint" />
            <mxPoint x="60" y="40.47999999999999" as="targetPoint" />
          </mxGeometry>
        </mxCell>
        <mxCell id="7hdt7lljPyfR1eicb4f4-78" value="" style="endArrow=none;html=1;rounded=0;" edge="1" parent="7hdt7lljPyfR1eicb4f4-16">
          <mxGeometry width="50" height="50" relative="1" as="geometry">
            <mxPoint x="20" y="50.47999999999999" as="sourcePoint" />
            <mxPoint x="60" y="50.47999999999999" as="targetPoint" />
          </mxGeometry>
        </mxCell>
        <mxCell id="7hdt7lljPyfR1eicb4f4-79" value="" style="endArrow=none;html=1;rounded=0;" edge="1" parent="7hdt7lljPyfR1eicb4f4-16">
          <mxGeometry width="50" height="50" relative="1" as="geometry">
            <mxPoint x="70" y="60" as="sourcePoint" />
            <mxPoint x="110" y="60" as="targetPoint" />
          </mxGeometry>
        </mxCell>
        <mxCell id="7hdt7lljPyfR1eicb4f4-80" value="" style="endArrow=none;html=1;rounded=0;" edge="1" parent="7hdt7lljPyfR1eicb4f4-16">
          <mxGeometry width="50" height="50" relative="1" as="geometry">
            <mxPoint x="70" y="70" as="sourcePoint" />
            <mxPoint x="110" y="70" as="targetPoint" />
          </mxGeometry>
        </mxCell>
        <mxCell id="7hdt7lljPyfR1eicb4f4-81" value="" style="endArrow=none;html=1;rounded=0;" edge="1" parent="7hdt7lljPyfR1eicb4f4-16">
          <mxGeometry width="50" height="50" relative="1" as="geometry">
            <mxPoint x="70" y="80" as="sourcePoint" />
            <mxPoint x="110" y="80" as="targetPoint" />
          </mxGeometry>
        </mxCell>
        <mxCell id="7hdt7lljPyfR1eicb4f4-82" value="" style="endArrow=none;html=1;rounded=0;" edge="1" parent="7hdt7lljPyfR1eicb4f4-16">
          <mxGeometry width="50" height="50" relative="1" as="geometry">
            <mxPoint x="70" y="90" as="sourcePoint" />
            <mxPoint x="110" y="90" as="targetPoint" />
          </mxGeometry>
        </mxCell>
        <mxCell id="7hdt7lljPyfR1eicb4f4-83" value="" style="endArrow=none;html=1;rounded=0;" edge="1" parent="7hdt7lljPyfR1eicb4f4-16">
          <mxGeometry width="50" height="50" relative="1" as="geometry">
            <mxPoint x="70" y="100" as="sourcePoint" />
            <mxPoint x="110" y="100" as="targetPoint" />
          </mxGeometry>
        </mxCell>
        <mxCell id="7hdt7lljPyfR1eicb4f4-84" value="" style="endArrow=none;html=1;rounded=0;" edge="1" parent="7hdt7lljPyfR1eicb4f4-16">
          <mxGeometry width="50" height="50" relative="1" as="geometry">
            <mxPoint x="70" y="10" as="sourcePoint" />
            <mxPoint x="110" y="10" as="targetPoint" />
          </mxGeometry>
        </mxCell>
        <mxCell id="7hdt7lljPyfR1eicb4f4-85" value="" style="endArrow=none;html=1;rounded=0;" edge="1" parent="7hdt7lljPyfR1eicb4f4-16">
          <mxGeometry width="50" height="50" relative="1" as="geometry">
            <mxPoint x="70" y="20" as="sourcePoint" />
            <mxPoint x="110" y="20" as="targetPoint" />
          </mxGeometry>
        </mxCell>
        <mxCell id="7hdt7lljPyfR1eicb4f4-86" value="" style="endArrow=none;html=1;rounded=0;" edge="1" parent="7hdt7lljPyfR1eicb4f4-16">
          <mxGeometry width="50" height="50" relative="1" as="geometry">
            <mxPoint x="70" y="30" as="sourcePoint" />
            <mxPoint x="110" y="30" as="targetPoint" />
          </mxGeometry>
        </mxCell>
        <mxCell id="7hdt7lljPyfR1eicb4f4-87" value="" style="endArrow=none;html=1;rounded=0;" edge="1" parent="7hdt7lljPyfR1eicb4f4-16">
          <mxGeometry width="50" height="50" relative="1" as="geometry">
            <mxPoint x="70" y="39.99999999999997" as="sourcePoint" />
            <mxPoint x="110" y="39.99999999999997" as="targetPoint" />
          </mxGeometry>
        </mxCell>
        <mxCell id="7hdt7lljPyfR1eicb4f4-88" value="" style="endArrow=none;html=1;rounded=0;" edge="1" parent="7hdt7lljPyfR1eicb4f4-16">
          <mxGeometry width="50" height="50" relative="1" as="geometry">
            <mxPoint x="70" y="49.99999999999997" as="sourcePoint" />
            <mxPoint x="110" y="49.99999999999997" as="targetPoint" />
          </mxGeometry>
        </mxCell>
        <mxCell id="7hdt7lljPyfR1eicb4f4-89" value="Indexer" style="text;html=1;strokeColor=none;fillColor=none;align=center;verticalAlign=middle;whiteSpace=wrap;rounded=0;" vertex="1" parent="7hdt7lljPyfR1eicb4f4-16">
          <mxGeometry y="93.5" width="60" height="30" as="geometry" />
        </mxCell>
        <mxCell id="7hdt7lljPyfR1eicb4f4-92" value="Historical" style="text;html=1;strokeColor=none;fillColor=none;align=center;verticalAlign=middle;whiteSpace=wrap;rounded=0;" vertex="1" parent="7hdt7lljPyfR1eicb4f4-16">
          <mxGeometry x="150" y="45" width="60" height="30" as="geometry" />
        </mxCell>
        <mxCell id="7hdt7lljPyfR1eicb4f4-420" value="" style="shape=singleArrow;direction=north;whiteSpace=wrap;html=1;" vertex="1" parent="7hdt7lljPyfR1eicb4f4-16">
          <mxGeometry x="82.5" y="120" width="35" height="80" as="geometry" />
        </mxCell>
        <mxCell id="7hdt7lljPyfR1eicb4f4-421" value="" style="shape=table;startSize=10;container=1;collapsible=0;childLayout=tableLayout;strokeColor=default;fontSize=16;" vertex="1" parent="7hdt7lljPyfR1eicb4f4-16">
          <mxGeometry x="80" y="140" width="40" height="30" as="geometry" />
        </mxCell>
        <mxCell id="7hdt7lljPyfR1eicb4f4-422" value="" style="shape=tableRow;horizontal=0;startSize=0;swimlaneHead=0;swimlaneBody=0;strokeColor=inherit;top=0;left=0;bottom=0;right=0;collapsible=0;dropTarget=0;fillColor=none;points=[[0,0.5],[1,0.5]];portConstraint=eastwest;fontSize=16;" vertex="1" parent="7hdt7lljPyfR1eicb4f4-421">
          <mxGeometry y="10" width="40" height="8" as="geometry" />
        </mxCell>
        <mxCell id="7hdt7lljPyfR1eicb4f4-423" value="" style="shape=partialRectangle;html=1;whiteSpace=wrap;connectable=0;strokeColor=inherit;overflow=hidden;fillColor=none;top=0;left=0;bottom=0;right=0;pointerEvents=1;fontSize=16;" vertex="1" parent="7hdt7lljPyfR1eicb4f4-422">
          <mxGeometry width="14" height="8" as="geometry">
            <mxRectangle width="14" height="8" as="alternateBounds" />
          </mxGeometry>
        </mxCell>
        <mxCell id="7hdt7lljPyfR1eicb4f4-424" value="" style="shape=partialRectangle;html=1;whiteSpace=wrap;connectable=0;strokeColor=inherit;overflow=hidden;fillColor=none;top=0;left=0;bottom=0;right=0;pointerEvents=1;fontSize=16;" vertex="1" parent="7hdt7lljPyfR1eicb4f4-422">
          <mxGeometry x="14" width="12" height="8" as="geometry">
            <mxRectangle width="12" height="8" as="alternateBounds" />
          </mxGeometry>
        </mxCell>
        <mxCell id="7hdt7lljPyfR1eicb4f4-425" value="" style="shape=partialRectangle;html=1;whiteSpace=wrap;connectable=0;strokeColor=inherit;overflow=hidden;fillColor=none;top=0;left=0;bottom=0;right=0;pointerEvents=1;fontSize=16;" vertex="1" parent="7hdt7lljPyfR1eicb4f4-422">
          <mxGeometry x="26" width="14" height="8" as="geometry">
            <mxRectangle width="14" height="8" as="alternateBounds" />
          </mxGeometry>
        </mxCell>
        <mxCell id="7hdt7lljPyfR1eicb4f4-426" value="" style="shape=tableRow;horizontal=0;startSize=0;swimlaneHead=0;swimlaneBody=0;strokeColor=inherit;top=0;left=0;bottom=0;right=0;collapsible=0;dropTarget=0;fillColor=none;points=[[0,0.5],[1,0.5]];portConstraint=eastwest;fontSize=16;" vertex="1" parent="7hdt7lljPyfR1eicb4f4-421">
          <mxGeometry y="18" width="40" height="6" as="geometry" />
        </mxCell>
        <mxCell id="7hdt7lljPyfR1eicb4f4-427" value="" style="shape=partialRectangle;html=1;whiteSpace=wrap;connectable=0;strokeColor=inherit;overflow=hidden;fillColor=none;top=0;left=0;bottom=0;right=0;pointerEvents=1;fontSize=16;" vertex="1" parent="7hdt7lljPyfR1eicb4f4-426">
          <mxGeometry width="14" height="6" as="geometry">
            <mxRectangle width="14" height="6" as="alternateBounds" />
          </mxGeometry>
        </mxCell>
        <mxCell id="7hdt7lljPyfR1eicb4f4-428" value="" style="shape=partialRectangle;html=1;whiteSpace=wrap;connectable=0;strokeColor=inherit;overflow=hidden;fillColor=none;top=0;left=0;bottom=0;right=0;pointerEvents=1;fontSize=16;" vertex="1" parent="7hdt7lljPyfR1eicb4f4-426">
          <mxGeometry x="14" width="12" height="6" as="geometry">
            <mxRectangle width="12" height="6" as="alternateBounds" />
          </mxGeometry>
        </mxCell>
        <mxCell id="7hdt7lljPyfR1eicb4f4-429" value="" style="shape=partialRectangle;html=1;whiteSpace=wrap;connectable=0;strokeColor=inherit;overflow=hidden;fillColor=none;top=0;left=0;bottom=0;right=0;pointerEvents=1;fontSize=16;" vertex="1" parent="7hdt7lljPyfR1eicb4f4-426">
          <mxGeometry x="26" width="14" height="6" as="geometry">
            <mxRectangle width="14" height="6" as="alternateBounds" />
          </mxGeometry>
        </mxCell>
        <mxCell id="7hdt7lljPyfR1eicb4f4-430" value="" style="shape=tableRow;horizontal=0;startSize=0;swimlaneHead=0;swimlaneBody=0;strokeColor=inherit;top=0;left=0;bottom=0;right=0;collapsible=0;dropTarget=0;fillColor=none;points=[[0,0.5],[1,0.5]];portConstraint=eastwest;fontSize=16;" vertex="1" parent="7hdt7lljPyfR1eicb4f4-421">
          <mxGeometry y="24" width="40" height="6" as="geometry" />
        </mxCell>
        <mxCell id="7hdt7lljPyfR1eicb4f4-431" value="" style="shape=partialRectangle;html=1;whiteSpace=wrap;connectable=0;strokeColor=inherit;overflow=hidden;fillColor=none;top=0;left=0;bottom=0;right=0;pointerEvents=1;fontSize=16;" vertex="1" parent="7hdt7lljPyfR1eicb4f4-430">
          <mxGeometry width="14" height="6" as="geometry">
            <mxRectangle width="14" height="6" as="alternateBounds" />
          </mxGeometry>
        </mxCell>
        <mxCell id="7hdt7lljPyfR1eicb4f4-432" value="" style="shape=partialRectangle;html=1;whiteSpace=wrap;connectable=0;strokeColor=inherit;overflow=hidden;fillColor=none;top=0;left=0;bottom=0;right=0;pointerEvents=1;fontSize=16;" vertex="1" parent="7hdt7lljPyfR1eicb4f4-430">
          <mxGeometry x="14" width="12" height="6" as="geometry">
            <mxRectangle width="12" height="6" as="alternateBounds" />
          </mxGeometry>
        </mxCell>
        <mxCell id="7hdt7lljPyfR1eicb4f4-433" value="" style="shape=partialRectangle;html=1;whiteSpace=wrap;connectable=0;strokeColor=inherit;overflow=hidden;fillColor=none;top=0;left=0;bottom=0;right=0;pointerEvents=1;fontSize=16;" vertex="1" parent="7hdt7lljPyfR1eicb4f4-430">
          <mxGeometry x="26" width="14" height="6" as="geometry">
            <mxRectangle width="14" height="6" as="alternateBounds" />
          </mxGeometry>
        </mxCell>
        <mxCell id="7hdt7lljPyfR1eicb4f4-93" value="" style="group" vertex="1" connectable="0" parent="1">
          <mxGeometry x="400" y="200" width="240" height="200" as="geometry" />
        </mxCell>
        <mxCell id="7hdt7lljPyfR1eicb4f4-94" value="" style="rounded=0;whiteSpace=wrap;html=1;" vertex="1" parent="7hdt7lljPyfR1eicb4f4-93">
          <mxGeometry width="120" height="120" as="geometry" />
        </mxCell>
        <mxCell id="7hdt7lljPyfR1eicb4f4-95" value="" style="rounded=0;whiteSpace=wrap;html=1;" vertex="1" parent="7hdt7lljPyfR1eicb4f4-93">
          <mxGeometry x="120" width="120" height="120" as="geometry" />
        </mxCell>
        <mxCell id="7hdt7lljPyfR1eicb4f4-96" value="T1" style="shape=table;startSize=30;container=1;collapsible=0;childLayout=tableLayout;strokeColor=default;fontSize=16;" vertex="1" parent="7hdt7lljPyfR1eicb4f4-93">
          <mxGeometry x="130" y="10" width="40" height="40" as="geometry" />
        </mxCell>
        <mxCell id="7hdt7lljPyfR1eicb4f4-97" value="" style="shape=tableRow;horizontal=0;startSize=0;swimlaneHead=0;swimlaneBody=0;strokeColor=inherit;top=0;left=0;bottom=0;right=0;collapsible=0;dropTarget=0;fillColor=none;points=[[0,0.5],[1,0.5]];portConstraint=eastwest;fontSize=16;" vertex="1" parent="7hdt7lljPyfR1eicb4f4-96">
          <mxGeometry y="30" width="40" height="4" as="geometry" />
        </mxCell>
        <mxCell id="7hdt7lljPyfR1eicb4f4-98" value="" style="shape=partialRectangle;html=1;whiteSpace=wrap;connectable=0;strokeColor=inherit;overflow=hidden;fillColor=none;top=0;left=0;bottom=0;right=0;pointerEvents=1;fontSize=16;" vertex="1" parent="7hdt7lljPyfR1eicb4f4-97">
          <mxGeometry width="14" height="4" as="geometry">
            <mxRectangle width="14" height="4" as="alternateBounds" />
          </mxGeometry>
        </mxCell>
        <mxCell id="7hdt7lljPyfR1eicb4f4-99" value="" style="shape=partialRectangle;html=1;whiteSpace=wrap;connectable=0;strokeColor=inherit;overflow=hidden;fillColor=none;top=0;left=0;bottom=0;right=0;pointerEvents=1;fontSize=16;" vertex="1" parent="7hdt7lljPyfR1eicb4f4-97">
          <mxGeometry x="14" width="12" height="4" as="geometry">
            <mxRectangle width="12" height="4" as="alternateBounds" />
          </mxGeometry>
        </mxCell>
        <mxCell id="7hdt7lljPyfR1eicb4f4-100" value="" style="shape=partialRectangle;html=1;whiteSpace=wrap;connectable=0;strokeColor=inherit;overflow=hidden;fillColor=none;top=0;left=0;bottom=0;right=0;pointerEvents=1;fontSize=16;" vertex="1" parent="7hdt7lljPyfR1eicb4f4-97">
          <mxGeometry x="26" width="14" height="4" as="geometry">
            <mxRectangle width="14" height="4" as="alternateBounds" />
          </mxGeometry>
        </mxCell>
        <mxCell id="7hdt7lljPyfR1eicb4f4-101" value="" style="shape=tableRow;horizontal=0;startSize=0;swimlaneHead=0;swimlaneBody=0;strokeColor=inherit;top=0;left=0;bottom=0;right=0;collapsible=0;dropTarget=0;fillColor=none;points=[[0,0.5],[1,0.5]];portConstraint=eastwest;fontSize=16;" vertex="1" parent="7hdt7lljPyfR1eicb4f4-96">
          <mxGeometry y="34" width="40" height="3" as="geometry" />
        </mxCell>
        <mxCell id="7hdt7lljPyfR1eicb4f4-102" value="" style="shape=partialRectangle;html=1;whiteSpace=wrap;connectable=0;strokeColor=inherit;overflow=hidden;fillColor=none;top=0;left=0;bottom=0;right=0;pointerEvents=1;fontSize=16;" vertex="1" parent="7hdt7lljPyfR1eicb4f4-101">
          <mxGeometry width="14" height="3" as="geometry">
            <mxRectangle width="14" height="3" as="alternateBounds" />
          </mxGeometry>
        </mxCell>
        <mxCell id="7hdt7lljPyfR1eicb4f4-103" value="" style="shape=partialRectangle;html=1;whiteSpace=wrap;connectable=0;strokeColor=inherit;overflow=hidden;fillColor=none;top=0;left=0;bottom=0;right=0;pointerEvents=1;fontSize=16;" vertex="1" parent="7hdt7lljPyfR1eicb4f4-101">
          <mxGeometry x="14" width="12" height="3" as="geometry">
            <mxRectangle width="12" height="3" as="alternateBounds" />
          </mxGeometry>
        </mxCell>
        <mxCell id="7hdt7lljPyfR1eicb4f4-104" value="" style="shape=partialRectangle;html=1;whiteSpace=wrap;connectable=0;strokeColor=inherit;overflow=hidden;fillColor=none;top=0;left=0;bottom=0;right=0;pointerEvents=1;fontSize=16;" vertex="1" parent="7hdt7lljPyfR1eicb4f4-101">
          <mxGeometry x="26" width="14" height="3" as="geometry">
            <mxRectangle width="14" height="3" as="alternateBounds" />
          </mxGeometry>
        </mxCell>
        <mxCell id="7hdt7lljPyfR1eicb4f4-105" value="" style="shape=tableRow;horizontal=0;startSize=0;swimlaneHead=0;swimlaneBody=0;strokeColor=inherit;top=0;left=0;bottom=0;right=0;collapsible=0;dropTarget=0;fillColor=none;points=[[0,0.5],[1,0.5]];portConstraint=eastwest;fontSize=16;" vertex="1" parent="7hdt7lljPyfR1eicb4f4-96">
          <mxGeometry y="37" width="40" height="3" as="geometry" />
        </mxCell>
        <mxCell id="7hdt7lljPyfR1eicb4f4-106" value="" style="shape=partialRectangle;html=1;whiteSpace=wrap;connectable=0;strokeColor=inherit;overflow=hidden;fillColor=none;top=0;left=0;bottom=0;right=0;pointerEvents=1;fontSize=16;" vertex="1" parent="7hdt7lljPyfR1eicb4f4-105">
          <mxGeometry width="14" height="3" as="geometry">
            <mxRectangle width="14" height="3" as="alternateBounds" />
          </mxGeometry>
        </mxCell>
        <mxCell id="7hdt7lljPyfR1eicb4f4-107" value="" style="shape=partialRectangle;html=1;whiteSpace=wrap;connectable=0;strokeColor=inherit;overflow=hidden;fillColor=none;top=0;left=0;bottom=0;right=0;pointerEvents=1;fontSize=16;" vertex="1" parent="7hdt7lljPyfR1eicb4f4-105">
          <mxGeometry x="14" width="12" height="3" as="geometry">
            <mxRectangle width="12" height="3" as="alternateBounds" />
          </mxGeometry>
        </mxCell>
        <mxCell id="7hdt7lljPyfR1eicb4f4-108" value="" style="shape=partialRectangle;html=1;whiteSpace=wrap;connectable=0;strokeColor=inherit;overflow=hidden;fillColor=none;top=0;left=0;bottom=0;right=0;pointerEvents=1;fontSize=16;" vertex="1" parent="7hdt7lljPyfR1eicb4f4-105">
          <mxGeometry x="26" width="14" height="3" as="geometry">
            <mxRectangle width="14" height="3" as="alternateBounds" />
          </mxGeometry>
        </mxCell>
        <mxCell id="7hdt7lljPyfR1eicb4f4-109" value="T2" style="shape=table;startSize=30;container=1;collapsible=0;childLayout=tableLayout;strokeColor=default;fontSize=16;" vertex="1" parent="7hdt7lljPyfR1eicb4f4-93">
          <mxGeometry x="190" y="10" width="40" height="40" as="geometry" />
        </mxCell>
        <mxCell id="7hdt7lljPyfR1eicb4f4-110" value="" style="shape=tableRow;horizontal=0;startSize=0;swimlaneHead=0;swimlaneBody=0;strokeColor=inherit;top=0;left=0;bottom=0;right=0;collapsible=0;dropTarget=0;fillColor=none;points=[[0,0.5],[1,0.5]];portConstraint=eastwest;fontSize=16;" vertex="1" parent="7hdt7lljPyfR1eicb4f4-109">
          <mxGeometry y="30" width="40" height="4" as="geometry" />
        </mxCell>
        <mxCell id="7hdt7lljPyfR1eicb4f4-111" value="" style="shape=partialRectangle;html=1;whiteSpace=wrap;connectable=0;strokeColor=inherit;overflow=hidden;fillColor=none;top=0;left=0;bottom=0;right=0;pointerEvents=1;fontSize=16;" vertex="1" parent="7hdt7lljPyfR1eicb4f4-110">
          <mxGeometry width="14" height="4" as="geometry">
            <mxRectangle width="14" height="4" as="alternateBounds" />
          </mxGeometry>
        </mxCell>
        <mxCell id="7hdt7lljPyfR1eicb4f4-112" value="" style="shape=partialRectangle;html=1;whiteSpace=wrap;connectable=0;strokeColor=inherit;overflow=hidden;fillColor=none;top=0;left=0;bottom=0;right=0;pointerEvents=1;fontSize=16;" vertex="1" parent="7hdt7lljPyfR1eicb4f4-110">
          <mxGeometry x="14" width="12" height="4" as="geometry">
            <mxRectangle width="12" height="4" as="alternateBounds" />
          </mxGeometry>
        </mxCell>
        <mxCell id="7hdt7lljPyfR1eicb4f4-113" value="" style="shape=partialRectangle;html=1;whiteSpace=wrap;connectable=0;strokeColor=inherit;overflow=hidden;fillColor=none;top=0;left=0;bottom=0;right=0;pointerEvents=1;fontSize=16;" vertex="1" parent="7hdt7lljPyfR1eicb4f4-110">
          <mxGeometry x="26" width="14" height="4" as="geometry">
            <mxRectangle width="14" height="4" as="alternateBounds" />
          </mxGeometry>
        </mxCell>
        <mxCell id="7hdt7lljPyfR1eicb4f4-114" value="" style="shape=tableRow;horizontal=0;startSize=0;swimlaneHead=0;swimlaneBody=0;strokeColor=inherit;top=0;left=0;bottom=0;right=0;collapsible=0;dropTarget=0;fillColor=none;points=[[0,0.5],[1,0.5]];portConstraint=eastwest;fontSize=16;" vertex="1" parent="7hdt7lljPyfR1eicb4f4-109">
          <mxGeometry y="34" width="40" height="3" as="geometry" />
        </mxCell>
        <mxCell id="7hdt7lljPyfR1eicb4f4-115" value="" style="shape=partialRectangle;html=1;whiteSpace=wrap;connectable=0;strokeColor=inherit;overflow=hidden;fillColor=none;top=0;left=0;bottom=0;right=0;pointerEvents=1;fontSize=16;" vertex="1" parent="7hdt7lljPyfR1eicb4f4-114">
          <mxGeometry width="14" height="3" as="geometry">
            <mxRectangle width="14" height="3" as="alternateBounds" />
          </mxGeometry>
        </mxCell>
        <mxCell id="7hdt7lljPyfR1eicb4f4-116" value="" style="shape=partialRectangle;html=1;whiteSpace=wrap;connectable=0;strokeColor=inherit;overflow=hidden;fillColor=none;top=0;left=0;bottom=0;right=0;pointerEvents=1;fontSize=16;" vertex="1" parent="7hdt7lljPyfR1eicb4f4-114">
          <mxGeometry x="14" width="12" height="3" as="geometry">
            <mxRectangle width="12" height="3" as="alternateBounds" />
          </mxGeometry>
        </mxCell>
        <mxCell id="7hdt7lljPyfR1eicb4f4-117" value="" style="shape=partialRectangle;html=1;whiteSpace=wrap;connectable=0;strokeColor=inherit;overflow=hidden;fillColor=none;top=0;left=0;bottom=0;right=0;pointerEvents=1;fontSize=16;" vertex="1" parent="7hdt7lljPyfR1eicb4f4-114">
          <mxGeometry x="26" width="14" height="3" as="geometry">
            <mxRectangle width="14" height="3" as="alternateBounds" />
          </mxGeometry>
        </mxCell>
        <mxCell id="7hdt7lljPyfR1eicb4f4-118" value="" style="shape=tableRow;horizontal=0;startSize=0;swimlaneHead=0;swimlaneBody=0;strokeColor=inherit;top=0;left=0;bottom=0;right=0;collapsible=0;dropTarget=0;fillColor=none;points=[[0,0.5],[1,0.5]];portConstraint=eastwest;fontSize=16;" vertex="1" parent="7hdt7lljPyfR1eicb4f4-109">
          <mxGeometry y="37" width="40" height="3" as="geometry" />
        </mxCell>
        <mxCell id="7hdt7lljPyfR1eicb4f4-119" value="" style="shape=partialRectangle;html=1;whiteSpace=wrap;connectable=0;strokeColor=inherit;overflow=hidden;fillColor=none;top=0;left=0;bottom=0;right=0;pointerEvents=1;fontSize=16;" vertex="1" parent="7hdt7lljPyfR1eicb4f4-118">
          <mxGeometry width="14" height="3" as="geometry">
            <mxRectangle width="14" height="3" as="alternateBounds" />
          </mxGeometry>
        </mxCell>
        <mxCell id="7hdt7lljPyfR1eicb4f4-120" value="" style="shape=partialRectangle;html=1;whiteSpace=wrap;connectable=0;strokeColor=inherit;overflow=hidden;fillColor=none;top=0;left=0;bottom=0;right=0;pointerEvents=1;fontSize=16;" vertex="1" parent="7hdt7lljPyfR1eicb4f4-118">
          <mxGeometry x="14" width="12" height="3" as="geometry">
            <mxRectangle width="12" height="3" as="alternateBounds" />
          </mxGeometry>
        </mxCell>
        <mxCell id="7hdt7lljPyfR1eicb4f4-121" value="" style="shape=partialRectangle;html=1;whiteSpace=wrap;connectable=0;strokeColor=inherit;overflow=hidden;fillColor=none;top=0;left=0;bottom=0;right=0;pointerEvents=1;fontSize=16;" vertex="1" parent="7hdt7lljPyfR1eicb4f4-118">
          <mxGeometry x="26" width="14" height="3" as="geometry">
            <mxRectangle width="14" height="3" as="alternateBounds" />
          </mxGeometry>
        </mxCell>
        <mxCell id="7hdt7lljPyfR1eicb4f4-122" value="T3" style="shape=table;startSize=30;container=1;collapsible=0;childLayout=tableLayout;strokeColor=default;fontSize=16;" vertex="1" parent="7hdt7lljPyfR1eicb4f4-93">
          <mxGeometry x="130" y="70" width="40" height="40" as="geometry" />
        </mxCell>
        <mxCell id="7hdt7lljPyfR1eicb4f4-123" value="" style="shape=tableRow;horizontal=0;startSize=0;swimlaneHead=0;swimlaneBody=0;strokeColor=inherit;top=0;left=0;bottom=0;right=0;collapsible=0;dropTarget=0;fillColor=none;points=[[0,0.5],[1,0.5]];portConstraint=eastwest;fontSize=16;" vertex="1" parent="7hdt7lljPyfR1eicb4f4-122">
          <mxGeometry y="30" width="40" height="4" as="geometry" />
        </mxCell>
        <mxCell id="7hdt7lljPyfR1eicb4f4-124" value="" style="shape=partialRectangle;html=1;whiteSpace=wrap;connectable=0;strokeColor=inherit;overflow=hidden;fillColor=none;top=0;left=0;bottom=0;right=0;pointerEvents=1;fontSize=16;" vertex="1" parent="7hdt7lljPyfR1eicb4f4-123">
          <mxGeometry width="14" height="4" as="geometry">
            <mxRectangle width="14" height="4" as="alternateBounds" />
          </mxGeometry>
        </mxCell>
        <mxCell id="7hdt7lljPyfR1eicb4f4-125" value="" style="shape=partialRectangle;html=1;whiteSpace=wrap;connectable=0;strokeColor=inherit;overflow=hidden;fillColor=none;top=0;left=0;bottom=0;right=0;pointerEvents=1;fontSize=16;" vertex="1" parent="7hdt7lljPyfR1eicb4f4-123">
          <mxGeometry x="14" width="12" height="4" as="geometry">
            <mxRectangle width="12" height="4" as="alternateBounds" />
          </mxGeometry>
        </mxCell>
        <mxCell id="7hdt7lljPyfR1eicb4f4-126" value="" style="shape=partialRectangle;html=1;whiteSpace=wrap;connectable=0;strokeColor=inherit;overflow=hidden;fillColor=none;top=0;left=0;bottom=0;right=0;pointerEvents=1;fontSize=16;" vertex="1" parent="7hdt7lljPyfR1eicb4f4-123">
          <mxGeometry x="26" width="14" height="4" as="geometry">
            <mxRectangle width="14" height="4" as="alternateBounds" />
          </mxGeometry>
        </mxCell>
        <mxCell id="7hdt7lljPyfR1eicb4f4-127" value="" style="shape=tableRow;horizontal=0;startSize=0;swimlaneHead=0;swimlaneBody=0;strokeColor=inherit;top=0;left=0;bottom=0;right=0;collapsible=0;dropTarget=0;fillColor=none;points=[[0,0.5],[1,0.5]];portConstraint=eastwest;fontSize=16;" vertex="1" parent="7hdt7lljPyfR1eicb4f4-122">
          <mxGeometry y="34" width="40" height="3" as="geometry" />
        </mxCell>
        <mxCell id="7hdt7lljPyfR1eicb4f4-128" value="" style="shape=partialRectangle;html=1;whiteSpace=wrap;connectable=0;strokeColor=inherit;overflow=hidden;fillColor=none;top=0;left=0;bottom=0;right=0;pointerEvents=1;fontSize=16;" vertex="1" parent="7hdt7lljPyfR1eicb4f4-127">
          <mxGeometry width="14" height="3" as="geometry">
            <mxRectangle width="14" height="3" as="alternateBounds" />
          </mxGeometry>
        </mxCell>
        <mxCell id="7hdt7lljPyfR1eicb4f4-129" value="" style="shape=partialRectangle;html=1;whiteSpace=wrap;connectable=0;strokeColor=inherit;overflow=hidden;fillColor=none;top=0;left=0;bottom=0;right=0;pointerEvents=1;fontSize=16;" vertex="1" parent="7hdt7lljPyfR1eicb4f4-127">
          <mxGeometry x="14" width="12" height="3" as="geometry">
            <mxRectangle width="12" height="3" as="alternateBounds" />
          </mxGeometry>
        </mxCell>
        <mxCell id="7hdt7lljPyfR1eicb4f4-130" value="" style="shape=partialRectangle;html=1;whiteSpace=wrap;connectable=0;strokeColor=inherit;overflow=hidden;fillColor=none;top=0;left=0;bottom=0;right=0;pointerEvents=1;fontSize=16;" vertex="1" parent="7hdt7lljPyfR1eicb4f4-127">
          <mxGeometry x="26" width="14" height="3" as="geometry">
            <mxRectangle width="14" height="3" as="alternateBounds" />
          </mxGeometry>
        </mxCell>
        <mxCell id="7hdt7lljPyfR1eicb4f4-131" value="" style="shape=tableRow;horizontal=0;startSize=0;swimlaneHead=0;swimlaneBody=0;strokeColor=inherit;top=0;left=0;bottom=0;right=0;collapsible=0;dropTarget=0;fillColor=none;points=[[0,0.5],[1,0.5]];portConstraint=eastwest;fontSize=16;" vertex="1" parent="7hdt7lljPyfR1eicb4f4-122">
          <mxGeometry y="37" width="40" height="3" as="geometry" />
        </mxCell>
        <mxCell id="7hdt7lljPyfR1eicb4f4-132" value="" style="shape=partialRectangle;html=1;whiteSpace=wrap;connectable=0;strokeColor=inherit;overflow=hidden;fillColor=none;top=0;left=0;bottom=0;right=0;pointerEvents=1;fontSize=16;" vertex="1" parent="7hdt7lljPyfR1eicb4f4-131">
          <mxGeometry width="14" height="3" as="geometry">
            <mxRectangle width="14" height="3" as="alternateBounds" />
          </mxGeometry>
        </mxCell>
        <mxCell id="7hdt7lljPyfR1eicb4f4-133" value="" style="shape=partialRectangle;html=1;whiteSpace=wrap;connectable=0;strokeColor=inherit;overflow=hidden;fillColor=none;top=0;left=0;bottom=0;right=0;pointerEvents=1;fontSize=16;" vertex="1" parent="7hdt7lljPyfR1eicb4f4-131">
          <mxGeometry x="14" width="12" height="3" as="geometry">
            <mxRectangle width="12" height="3" as="alternateBounds" />
          </mxGeometry>
        </mxCell>
        <mxCell id="7hdt7lljPyfR1eicb4f4-134" value="" style="shape=partialRectangle;html=1;whiteSpace=wrap;connectable=0;strokeColor=inherit;overflow=hidden;fillColor=none;top=0;left=0;bottom=0;right=0;pointerEvents=1;fontSize=16;" vertex="1" parent="7hdt7lljPyfR1eicb4f4-131">
          <mxGeometry x="26" width="14" height="3" as="geometry">
            <mxRectangle width="14" height="3" as="alternateBounds" />
          </mxGeometry>
        </mxCell>
        <mxCell id="7hdt7lljPyfR1eicb4f4-135" value="T4" style="shape=table;startSize=30;container=1;collapsible=0;childLayout=tableLayout;strokeColor=default;fontSize=16;" vertex="1" parent="7hdt7lljPyfR1eicb4f4-93">
          <mxGeometry x="190" y="70" width="40" height="40" as="geometry" />
        </mxCell>
        <mxCell id="7hdt7lljPyfR1eicb4f4-136" value="" style="shape=tableRow;horizontal=0;startSize=0;swimlaneHead=0;swimlaneBody=0;strokeColor=inherit;top=0;left=0;bottom=0;right=0;collapsible=0;dropTarget=0;fillColor=none;points=[[0,0.5],[1,0.5]];portConstraint=eastwest;fontSize=16;" vertex="1" parent="7hdt7lljPyfR1eicb4f4-135">
          <mxGeometry y="30" width="40" height="4" as="geometry" />
        </mxCell>
        <mxCell id="7hdt7lljPyfR1eicb4f4-137" value="" style="shape=partialRectangle;html=1;whiteSpace=wrap;connectable=0;strokeColor=inherit;overflow=hidden;fillColor=none;top=0;left=0;bottom=0;right=0;pointerEvents=1;fontSize=16;" vertex="1" parent="7hdt7lljPyfR1eicb4f4-136">
          <mxGeometry width="14" height="4" as="geometry">
            <mxRectangle width="14" height="4" as="alternateBounds" />
          </mxGeometry>
        </mxCell>
        <mxCell id="7hdt7lljPyfR1eicb4f4-138" value="" style="shape=partialRectangle;html=1;whiteSpace=wrap;connectable=0;strokeColor=inherit;overflow=hidden;fillColor=none;top=0;left=0;bottom=0;right=0;pointerEvents=1;fontSize=16;" vertex="1" parent="7hdt7lljPyfR1eicb4f4-136">
          <mxGeometry x="14" width="12" height="4" as="geometry">
            <mxRectangle width="12" height="4" as="alternateBounds" />
          </mxGeometry>
        </mxCell>
        <mxCell id="7hdt7lljPyfR1eicb4f4-139" value="" style="shape=partialRectangle;html=1;whiteSpace=wrap;connectable=0;strokeColor=inherit;overflow=hidden;fillColor=none;top=0;left=0;bottom=0;right=0;pointerEvents=1;fontSize=16;" vertex="1" parent="7hdt7lljPyfR1eicb4f4-136">
          <mxGeometry x="26" width="14" height="4" as="geometry">
            <mxRectangle width="14" height="4" as="alternateBounds" />
          </mxGeometry>
        </mxCell>
        <mxCell id="7hdt7lljPyfR1eicb4f4-140" value="" style="shape=tableRow;horizontal=0;startSize=0;swimlaneHead=0;swimlaneBody=0;strokeColor=inherit;top=0;left=0;bottom=0;right=0;collapsible=0;dropTarget=0;fillColor=none;points=[[0,0.5],[1,0.5]];portConstraint=eastwest;fontSize=16;" vertex="1" parent="7hdt7lljPyfR1eicb4f4-135">
          <mxGeometry y="34" width="40" height="3" as="geometry" />
        </mxCell>
        <mxCell id="7hdt7lljPyfR1eicb4f4-141" value="" style="shape=partialRectangle;html=1;whiteSpace=wrap;connectable=0;strokeColor=inherit;overflow=hidden;fillColor=none;top=0;left=0;bottom=0;right=0;pointerEvents=1;fontSize=16;" vertex="1" parent="7hdt7lljPyfR1eicb4f4-140">
          <mxGeometry width="14" height="3" as="geometry">
            <mxRectangle width="14" height="3" as="alternateBounds" />
          </mxGeometry>
        </mxCell>
        <mxCell id="7hdt7lljPyfR1eicb4f4-142" value="" style="shape=partialRectangle;html=1;whiteSpace=wrap;connectable=0;strokeColor=inherit;overflow=hidden;fillColor=none;top=0;left=0;bottom=0;right=0;pointerEvents=1;fontSize=16;" vertex="1" parent="7hdt7lljPyfR1eicb4f4-140">
          <mxGeometry x="14" width="12" height="3" as="geometry">
            <mxRectangle width="12" height="3" as="alternateBounds" />
          </mxGeometry>
        </mxCell>
        <mxCell id="7hdt7lljPyfR1eicb4f4-143" value="" style="shape=partialRectangle;html=1;whiteSpace=wrap;connectable=0;strokeColor=inherit;overflow=hidden;fillColor=none;top=0;left=0;bottom=0;right=0;pointerEvents=1;fontSize=16;" vertex="1" parent="7hdt7lljPyfR1eicb4f4-140">
          <mxGeometry x="26" width="14" height="3" as="geometry">
            <mxRectangle width="14" height="3" as="alternateBounds" />
          </mxGeometry>
        </mxCell>
        <mxCell id="7hdt7lljPyfR1eicb4f4-144" value="" style="shape=tableRow;horizontal=0;startSize=0;swimlaneHead=0;swimlaneBody=0;strokeColor=inherit;top=0;left=0;bottom=0;right=0;collapsible=0;dropTarget=0;fillColor=none;points=[[0,0.5],[1,0.5]];portConstraint=eastwest;fontSize=16;" vertex="1" parent="7hdt7lljPyfR1eicb4f4-135">
          <mxGeometry y="37" width="40" height="3" as="geometry" />
        </mxCell>
        <mxCell id="7hdt7lljPyfR1eicb4f4-145" value="" style="shape=partialRectangle;html=1;whiteSpace=wrap;connectable=0;strokeColor=inherit;overflow=hidden;fillColor=none;top=0;left=0;bottom=0;right=0;pointerEvents=1;fontSize=16;" vertex="1" parent="7hdt7lljPyfR1eicb4f4-144">
          <mxGeometry width="14" height="3" as="geometry">
            <mxRectangle width="14" height="3" as="alternateBounds" />
          </mxGeometry>
        </mxCell>
        <mxCell id="7hdt7lljPyfR1eicb4f4-146" value="" style="shape=partialRectangle;html=1;whiteSpace=wrap;connectable=0;strokeColor=inherit;overflow=hidden;fillColor=none;top=0;left=0;bottom=0;right=0;pointerEvents=1;fontSize=16;" vertex="1" parent="7hdt7lljPyfR1eicb4f4-144">
          <mxGeometry x="14" width="12" height="3" as="geometry">
            <mxRectangle width="12" height="3" as="alternateBounds" />
          </mxGeometry>
        </mxCell>
        <mxCell id="7hdt7lljPyfR1eicb4f4-147" value="" style="shape=partialRectangle;html=1;whiteSpace=wrap;connectable=0;strokeColor=inherit;overflow=hidden;fillColor=none;top=0;left=0;bottom=0;right=0;pointerEvents=1;fontSize=16;" vertex="1" parent="7hdt7lljPyfR1eicb4f4-144">
          <mxGeometry x="26" width="14" height="3" as="geometry">
            <mxRectangle width="14" height="3" as="alternateBounds" />
          </mxGeometry>
        </mxCell>
        <mxCell id="7hdt7lljPyfR1eicb4f4-148" value="" style="endArrow=none;html=1;rounded=0;" edge="1" parent="7hdt7lljPyfR1eicb4f4-93">
          <mxGeometry width="50" height="50" relative="1" as="geometry">
            <mxPoint x="20" y="60.48000000000002" as="sourcePoint" />
            <mxPoint x="60" y="60.48000000000002" as="targetPoint" />
          </mxGeometry>
        </mxCell>
        <mxCell id="7hdt7lljPyfR1eicb4f4-149" value="" style="endArrow=none;html=1;rounded=0;" edge="1" parent="7hdt7lljPyfR1eicb4f4-93">
          <mxGeometry width="50" height="50" relative="1" as="geometry">
            <mxPoint x="20" y="70.48000000000002" as="sourcePoint" />
            <mxPoint x="60" y="70.48000000000002" as="targetPoint" />
          </mxGeometry>
        </mxCell>
        <mxCell id="7hdt7lljPyfR1eicb4f4-150" value="" style="endArrow=none;html=1;rounded=0;" edge="1" parent="7hdt7lljPyfR1eicb4f4-93">
          <mxGeometry width="50" height="50" relative="1" as="geometry">
            <mxPoint x="20" y="80.48000000000002" as="sourcePoint" />
            <mxPoint x="60" y="80.48000000000002" as="targetPoint" />
          </mxGeometry>
        </mxCell>
        <mxCell id="7hdt7lljPyfR1eicb4f4-151" value="" style="endArrow=none;html=1;rounded=0;" edge="1" parent="7hdt7lljPyfR1eicb4f4-93">
          <mxGeometry width="50" height="50" relative="1" as="geometry">
            <mxPoint x="20" y="90.48000000000002" as="sourcePoint" />
            <mxPoint x="60" y="90.48000000000002" as="targetPoint" />
          </mxGeometry>
        </mxCell>
        <mxCell id="7hdt7lljPyfR1eicb4f4-152" value="" style="endArrow=none;html=1;rounded=0;" edge="1" parent="7hdt7lljPyfR1eicb4f4-93" source="7hdt7lljPyfR1eicb4f4-168">
          <mxGeometry width="50" height="50" relative="1" as="geometry">
            <mxPoint x="20" y="100.48000000000002" as="sourcePoint" />
            <mxPoint x="60" y="100.48000000000002" as="targetPoint" />
          </mxGeometry>
        </mxCell>
        <mxCell id="7hdt7lljPyfR1eicb4f4-153" value="" style="endArrow=none;html=1;rounded=0;" edge="1" parent="7hdt7lljPyfR1eicb4f4-93">
          <mxGeometry width="50" height="50" relative="1" as="geometry">
            <mxPoint x="20" y="10.47999999999999" as="sourcePoint" />
            <mxPoint x="60" y="10.47999999999999" as="targetPoint" />
          </mxGeometry>
        </mxCell>
        <mxCell id="7hdt7lljPyfR1eicb4f4-154" value="" style="endArrow=none;html=1;rounded=0;" edge="1" parent="7hdt7lljPyfR1eicb4f4-93">
          <mxGeometry width="50" height="50" relative="1" as="geometry">
            <mxPoint x="20" y="20.47999999999999" as="sourcePoint" />
            <mxPoint x="60" y="20.47999999999999" as="targetPoint" />
          </mxGeometry>
        </mxCell>
        <mxCell id="7hdt7lljPyfR1eicb4f4-155" value="" style="endArrow=none;html=1;rounded=0;" edge="1" parent="7hdt7lljPyfR1eicb4f4-93">
          <mxGeometry width="50" height="50" relative="1" as="geometry">
            <mxPoint x="20" y="30.47999999999999" as="sourcePoint" />
            <mxPoint x="60" y="30.47999999999999" as="targetPoint" />
          </mxGeometry>
        </mxCell>
        <mxCell id="7hdt7lljPyfR1eicb4f4-156" value="" style="endArrow=none;html=1;rounded=0;" edge="1" parent="7hdt7lljPyfR1eicb4f4-93">
          <mxGeometry width="50" height="50" relative="1" as="geometry">
            <mxPoint x="20" y="40.47999999999999" as="sourcePoint" />
            <mxPoint x="60" y="40.47999999999999" as="targetPoint" />
          </mxGeometry>
        </mxCell>
        <mxCell id="7hdt7lljPyfR1eicb4f4-157" value="" style="endArrow=none;html=1;rounded=0;" edge="1" parent="7hdt7lljPyfR1eicb4f4-93">
          <mxGeometry width="50" height="50" relative="1" as="geometry">
            <mxPoint x="20" y="50.47999999999999" as="sourcePoint" />
            <mxPoint x="60" y="50.47999999999999" as="targetPoint" />
          </mxGeometry>
        </mxCell>
        <mxCell id="7hdt7lljPyfR1eicb4f4-158" value="" style="endArrow=none;html=1;rounded=0;" edge="1" parent="7hdt7lljPyfR1eicb4f4-93">
          <mxGeometry width="50" height="50" relative="1" as="geometry">
            <mxPoint x="70" y="60" as="sourcePoint" />
            <mxPoint x="110" y="60" as="targetPoint" />
          </mxGeometry>
        </mxCell>
        <mxCell id="7hdt7lljPyfR1eicb4f4-159" value="" style="endArrow=none;html=1;rounded=0;" edge="1" parent="7hdt7lljPyfR1eicb4f4-93">
          <mxGeometry width="50" height="50" relative="1" as="geometry">
            <mxPoint x="70" y="70" as="sourcePoint" />
            <mxPoint x="110" y="70" as="targetPoint" />
          </mxGeometry>
        </mxCell>
        <mxCell id="7hdt7lljPyfR1eicb4f4-160" value="" style="endArrow=none;html=1;rounded=0;" edge="1" parent="7hdt7lljPyfR1eicb4f4-93">
          <mxGeometry width="50" height="50" relative="1" as="geometry">
            <mxPoint x="70" y="80" as="sourcePoint" />
            <mxPoint x="110" y="80" as="targetPoint" />
          </mxGeometry>
        </mxCell>
        <mxCell id="7hdt7lljPyfR1eicb4f4-161" value="" style="endArrow=none;html=1;rounded=0;" edge="1" parent="7hdt7lljPyfR1eicb4f4-93">
          <mxGeometry width="50" height="50" relative="1" as="geometry">
            <mxPoint x="70" y="90" as="sourcePoint" />
            <mxPoint x="110" y="90" as="targetPoint" />
          </mxGeometry>
        </mxCell>
        <mxCell id="7hdt7lljPyfR1eicb4f4-162" value="" style="endArrow=none;html=1;rounded=0;" edge="1" parent="7hdt7lljPyfR1eicb4f4-93">
          <mxGeometry width="50" height="50" relative="1" as="geometry">
            <mxPoint x="70" y="100" as="sourcePoint" />
            <mxPoint x="110" y="100" as="targetPoint" />
          </mxGeometry>
        </mxCell>
        <mxCell id="7hdt7lljPyfR1eicb4f4-163" value="" style="endArrow=none;html=1;rounded=0;" edge="1" parent="7hdt7lljPyfR1eicb4f4-93">
          <mxGeometry width="50" height="50" relative="1" as="geometry">
            <mxPoint x="70" y="10" as="sourcePoint" />
            <mxPoint x="110" y="10" as="targetPoint" />
          </mxGeometry>
        </mxCell>
        <mxCell id="7hdt7lljPyfR1eicb4f4-164" value="" style="endArrow=none;html=1;rounded=0;" edge="1" parent="7hdt7lljPyfR1eicb4f4-93">
          <mxGeometry width="50" height="50" relative="1" as="geometry">
            <mxPoint x="70" y="20" as="sourcePoint" />
            <mxPoint x="110" y="20" as="targetPoint" />
          </mxGeometry>
        </mxCell>
        <mxCell id="7hdt7lljPyfR1eicb4f4-165" value="" style="endArrow=none;html=1;rounded=0;" edge="1" parent="7hdt7lljPyfR1eicb4f4-93">
          <mxGeometry width="50" height="50" relative="1" as="geometry">
            <mxPoint x="70" y="30" as="sourcePoint" />
            <mxPoint x="110" y="30" as="targetPoint" />
          </mxGeometry>
        </mxCell>
        <mxCell id="7hdt7lljPyfR1eicb4f4-166" value="" style="endArrow=none;html=1;rounded=0;" edge="1" parent="7hdt7lljPyfR1eicb4f4-93">
          <mxGeometry width="50" height="50" relative="1" as="geometry">
            <mxPoint x="70" y="39.99999999999997" as="sourcePoint" />
            <mxPoint x="110" y="39.99999999999997" as="targetPoint" />
          </mxGeometry>
        </mxCell>
        <mxCell id="7hdt7lljPyfR1eicb4f4-167" value="" style="endArrow=none;html=1;rounded=0;" edge="1" parent="7hdt7lljPyfR1eicb4f4-93">
          <mxGeometry width="50" height="50" relative="1" as="geometry">
            <mxPoint x="70" y="49.99999999999997" as="sourcePoint" />
            <mxPoint x="110" y="49.99999999999997" as="targetPoint" />
          </mxGeometry>
        </mxCell>
        <mxCell id="7hdt7lljPyfR1eicb4f4-168" value="Indexer" style="text;html=1;strokeColor=none;fillColor=none;align=center;verticalAlign=middle;whiteSpace=wrap;rounded=0;" vertex="1" parent="7hdt7lljPyfR1eicb4f4-93">
          <mxGeometry y="93.5" width="60" height="30" as="geometry" />
        </mxCell>
        <mxCell id="7hdt7lljPyfR1eicb4f4-169" value="Historical" style="text;html=1;strokeColor=none;fillColor=none;align=center;verticalAlign=middle;whiteSpace=wrap;rounded=0;" vertex="1" parent="7hdt7lljPyfR1eicb4f4-93">
          <mxGeometry x="150" y="45" width="60" height="30" as="geometry" />
        </mxCell>
        <mxCell id="7hdt7lljPyfR1eicb4f4-448" value="" style="shape=singleArrow;direction=south;whiteSpace=wrap;html=1;" vertex="1" parent="7hdt7lljPyfR1eicb4f4-93">
          <mxGeometry x="16.5" y="120" width="35" height="80" as="geometry" />
        </mxCell>
        <mxCell id="7hdt7lljPyfR1eicb4f4-449" value="" style="shape=table;startSize=10;container=1;collapsible=0;childLayout=tableLayout;strokeColor=default;fontSize=16;" vertex="1" parent="7hdt7lljPyfR1eicb4f4-93">
          <mxGeometry x="14" y="140" width="40" height="30" as="geometry" />
        </mxCell>
        <mxCell id="7hdt7lljPyfR1eicb4f4-450" value="" style="shape=tableRow;horizontal=0;startSize=0;swimlaneHead=0;swimlaneBody=0;strokeColor=inherit;top=0;left=0;bottom=0;right=0;collapsible=0;dropTarget=0;fillColor=none;points=[[0,0.5],[1,0.5]];portConstraint=eastwest;fontSize=16;" vertex="1" parent="7hdt7lljPyfR1eicb4f4-449">
          <mxGeometry y="10" width="40" height="8" as="geometry" />
        </mxCell>
        <mxCell id="7hdt7lljPyfR1eicb4f4-451" value="" style="shape=partialRectangle;html=1;whiteSpace=wrap;connectable=0;strokeColor=inherit;overflow=hidden;fillColor=none;top=0;left=0;bottom=0;right=0;pointerEvents=1;fontSize=16;" vertex="1" parent="7hdt7lljPyfR1eicb4f4-450">
          <mxGeometry width="14" height="8" as="geometry">
            <mxRectangle width="14" height="8" as="alternateBounds" />
          </mxGeometry>
        </mxCell>
        <mxCell id="7hdt7lljPyfR1eicb4f4-452" value="" style="shape=partialRectangle;html=1;whiteSpace=wrap;connectable=0;strokeColor=inherit;overflow=hidden;fillColor=none;top=0;left=0;bottom=0;right=0;pointerEvents=1;fontSize=16;" vertex="1" parent="7hdt7lljPyfR1eicb4f4-450">
          <mxGeometry x="14" width="12" height="8" as="geometry">
            <mxRectangle width="12" height="8" as="alternateBounds" />
          </mxGeometry>
        </mxCell>
        <mxCell id="7hdt7lljPyfR1eicb4f4-453" value="" style="shape=partialRectangle;html=1;whiteSpace=wrap;connectable=0;strokeColor=inherit;overflow=hidden;fillColor=none;top=0;left=0;bottom=0;right=0;pointerEvents=1;fontSize=16;" vertex="1" parent="7hdt7lljPyfR1eicb4f4-450">
          <mxGeometry x="26" width="14" height="8" as="geometry">
            <mxRectangle width="14" height="8" as="alternateBounds" />
          </mxGeometry>
        </mxCell>
        <mxCell id="7hdt7lljPyfR1eicb4f4-454" value="" style="shape=tableRow;horizontal=0;startSize=0;swimlaneHead=0;swimlaneBody=0;strokeColor=inherit;top=0;left=0;bottom=0;right=0;collapsible=0;dropTarget=0;fillColor=none;points=[[0,0.5],[1,0.5]];portConstraint=eastwest;fontSize=16;" vertex="1" parent="7hdt7lljPyfR1eicb4f4-449">
          <mxGeometry y="18" width="40" height="6" as="geometry" />
        </mxCell>
        <mxCell id="7hdt7lljPyfR1eicb4f4-455" value="" style="shape=partialRectangle;html=1;whiteSpace=wrap;connectable=0;strokeColor=inherit;overflow=hidden;fillColor=none;top=0;left=0;bottom=0;right=0;pointerEvents=1;fontSize=16;" vertex="1" parent="7hdt7lljPyfR1eicb4f4-454">
          <mxGeometry width="14" height="6" as="geometry">
            <mxRectangle width="14" height="6" as="alternateBounds" />
          </mxGeometry>
        </mxCell>
        <mxCell id="7hdt7lljPyfR1eicb4f4-456" value="" style="shape=partialRectangle;html=1;whiteSpace=wrap;connectable=0;strokeColor=inherit;overflow=hidden;fillColor=none;top=0;left=0;bottom=0;right=0;pointerEvents=1;fontSize=16;" vertex="1" parent="7hdt7lljPyfR1eicb4f4-454">
          <mxGeometry x="14" width="12" height="6" as="geometry">
            <mxRectangle width="12" height="6" as="alternateBounds" />
          </mxGeometry>
        </mxCell>
        <mxCell id="7hdt7lljPyfR1eicb4f4-457" value="" style="shape=partialRectangle;html=1;whiteSpace=wrap;connectable=0;strokeColor=inherit;overflow=hidden;fillColor=none;top=0;left=0;bottom=0;right=0;pointerEvents=1;fontSize=16;" vertex="1" parent="7hdt7lljPyfR1eicb4f4-454">
          <mxGeometry x="26" width="14" height="6" as="geometry">
            <mxRectangle width="14" height="6" as="alternateBounds" />
          </mxGeometry>
        </mxCell>
        <mxCell id="7hdt7lljPyfR1eicb4f4-458" value="" style="shape=tableRow;horizontal=0;startSize=0;swimlaneHead=0;swimlaneBody=0;strokeColor=inherit;top=0;left=0;bottom=0;right=0;collapsible=0;dropTarget=0;fillColor=none;points=[[0,0.5],[1,0.5]];portConstraint=eastwest;fontSize=16;" vertex="1" parent="7hdt7lljPyfR1eicb4f4-449">
          <mxGeometry y="24" width="40" height="6" as="geometry" />
        </mxCell>
        <mxCell id="7hdt7lljPyfR1eicb4f4-459" value="" style="shape=partialRectangle;html=1;whiteSpace=wrap;connectable=0;strokeColor=inherit;overflow=hidden;fillColor=none;top=0;left=0;bottom=0;right=0;pointerEvents=1;fontSize=16;" vertex="1" parent="7hdt7lljPyfR1eicb4f4-458">
          <mxGeometry width="14" height="6" as="geometry">
            <mxRectangle width="14" height="6" as="alternateBounds" />
          </mxGeometry>
        </mxCell>
        <mxCell id="7hdt7lljPyfR1eicb4f4-460" value="" style="shape=partialRectangle;html=1;whiteSpace=wrap;connectable=0;strokeColor=inherit;overflow=hidden;fillColor=none;top=0;left=0;bottom=0;right=0;pointerEvents=1;fontSize=16;" vertex="1" parent="7hdt7lljPyfR1eicb4f4-458">
          <mxGeometry x="14" width="12" height="6" as="geometry">
            <mxRectangle width="12" height="6" as="alternateBounds" />
          </mxGeometry>
        </mxCell>
        <mxCell id="7hdt7lljPyfR1eicb4f4-461" value="" style="shape=partialRectangle;html=1;whiteSpace=wrap;connectable=0;strokeColor=inherit;overflow=hidden;fillColor=none;top=0;left=0;bottom=0;right=0;pointerEvents=1;fontSize=16;" vertex="1" parent="7hdt7lljPyfR1eicb4f4-458">
          <mxGeometry x="26" width="14" height="6" as="geometry">
            <mxRectangle width="14" height="6" as="alternateBounds" />
          </mxGeometry>
        </mxCell>
        <mxCell id="7hdt7lljPyfR1eicb4f4-434" value="" style="shape=singleArrow;direction=north;whiteSpace=wrap;html=1;" vertex="1" parent="7hdt7lljPyfR1eicb4f4-93">
          <mxGeometry x="82.5" y="120" width="35" height="80" as="geometry" />
        </mxCell>
        <mxCell id="7hdt7lljPyfR1eicb4f4-435" value="" style="shape=table;startSize=10;container=1;collapsible=0;childLayout=tableLayout;strokeColor=default;fontSize=16;" vertex="1" parent="7hdt7lljPyfR1eicb4f4-93">
          <mxGeometry x="80" y="140" width="40" height="30" as="geometry" />
        </mxCell>
        <mxCell id="7hdt7lljPyfR1eicb4f4-436" value="" style="shape=tableRow;horizontal=0;startSize=0;swimlaneHead=0;swimlaneBody=0;strokeColor=inherit;top=0;left=0;bottom=0;right=0;collapsible=0;dropTarget=0;fillColor=none;points=[[0,0.5],[1,0.5]];portConstraint=eastwest;fontSize=16;" vertex="1" parent="7hdt7lljPyfR1eicb4f4-435">
          <mxGeometry y="10" width="40" height="8" as="geometry" />
        </mxCell>
        <mxCell id="7hdt7lljPyfR1eicb4f4-437" value="" style="shape=partialRectangle;html=1;whiteSpace=wrap;connectable=0;strokeColor=inherit;overflow=hidden;fillColor=none;top=0;left=0;bottom=0;right=0;pointerEvents=1;fontSize=16;" vertex="1" parent="7hdt7lljPyfR1eicb4f4-436">
          <mxGeometry width="14" height="8" as="geometry">
            <mxRectangle width="14" height="8" as="alternateBounds" />
          </mxGeometry>
        </mxCell>
        <mxCell id="7hdt7lljPyfR1eicb4f4-438" value="" style="shape=partialRectangle;html=1;whiteSpace=wrap;connectable=0;strokeColor=inherit;overflow=hidden;fillColor=none;top=0;left=0;bottom=0;right=0;pointerEvents=1;fontSize=16;" vertex="1" parent="7hdt7lljPyfR1eicb4f4-436">
          <mxGeometry x="14" width="12" height="8" as="geometry">
            <mxRectangle width="12" height="8" as="alternateBounds" />
          </mxGeometry>
        </mxCell>
        <mxCell id="7hdt7lljPyfR1eicb4f4-439" value="" style="shape=partialRectangle;html=1;whiteSpace=wrap;connectable=0;strokeColor=inherit;overflow=hidden;fillColor=none;top=0;left=0;bottom=0;right=0;pointerEvents=1;fontSize=16;" vertex="1" parent="7hdt7lljPyfR1eicb4f4-436">
          <mxGeometry x="26" width="14" height="8" as="geometry">
            <mxRectangle width="14" height="8" as="alternateBounds" />
          </mxGeometry>
        </mxCell>
        <mxCell id="7hdt7lljPyfR1eicb4f4-440" value="" style="shape=tableRow;horizontal=0;startSize=0;swimlaneHead=0;swimlaneBody=0;strokeColor=inherit;top=0;left=0;bottom=0;right=0;collapsible=0;dropTarget=0;fillColor=none;points=[[0,0.5],[1,0.5]];portConstraint=eastwest;fontSize=16;" vertex="1" parent="7hdt7lljPyfR1eicb4f4-435">
          <mxGeometry y="18" width="40" height="6" as="geometry" />
        </mxCell>
        <mxCell id="7hdt7lljPyfR1eicb4f4-441" value="" style="shape=partialRectangle;html=1;whiteSpace=wrap;connectable=0;strokeColor=inherit;overflow=hidden;fillColor=none;top=0;left=0;bottom=0;right=0;pointerEvents=1;fontSize=16;" vertex="1" parent="7hdt7lljPyfR1eicb4f4-440">
          <mxGeometry width="14" height="6" as="geometry">
            <mxRectangle width="14" height="6" as="alternateBounds" />
          </mxGeometry>
        </mxCell>
        <mxCell id="7hdt7lljPyfR1eicb4f4-442" value="" style="shape=partialRectangle;html=1;whiteSpace=wrap;connectable=0;strokeColor=inherit;overflow=hidden;fillColor=none;top=0;left=0;bottom=0;right=0;pointerEvents=1;fontSize=16;" vertex="1" parent="7hdt7lljPyfR1eicb4f4-440">
          <mxGeometry x="14" width="12" height="6" as="geometry">
            <mxRectangle width="12" height="6" as="alternateBounds" />
          </mxGeometry>
        </mxCell>
        <mxCell id="7hdt7lljPyfR1eicb4f4-443" value="" style="shape=partialRectangle;html=1;whiteSpace=wrap;connectable=0;strokeColor=inherit;overflow=hidden;fillColor=none;top=0;left=0;bottom=0;right=0;pointerEvents=1;fontSize=16;" vertex="1" parent="7hdt7lljPyfR1eicb4f4-440">
          <mxGeometry x="26" width="14" height="6" as="geometry">
            <mxRectangle width="14" height="6" as="alternateBounds" />
          </mxGeometry>
        </mxCell>
        <mxCell id="7hdt7lljPyfR1eicb4f4-444" value="" style="shape=tableRow;horizontal=0;startSize=0;swimlaneHead=0;swimlaneBody=0;strokeColor=inherit;top=0;left=0;bottom=0;right=0;collapsible=0;dropTarget=0;fillColor=none;points=[[0,0.5],[1,0.5]];portConstraint=eastwest;fontSize=16;" vertex="1" parent="7hdt7lljPyfR1eicb4f4-435">
          <mxGeometry y="24" width="40" height="6" as="geometry" />
        </mxCell>
        <mxCell id="7hdt7lljPyfR1eicb4f4-445" value="" style="shape=partialRectangle;html=1;whiteSpace=wrap;connectable=0;strokeColor=inherit;overflow=hidden;fillColor=none;top=0;left=0;bottom=0;right=0;pointerEvents=1;fontSize=16;" vertex="1" parent="7hdt7lljPyfR1eicb4f4-444">
          <mxGeometry width="14" height="6" as="geometry">
            <mxRectangle width="14" height="6" as="alternateBounds" />
          </mxGeometry>
        </mxCell>
        <mxCell id="7hdt7lljPyfR1eicb4f4-446" value="" style="shape=partialRectangle;html=1;whiteSpace=wrap;connectable=0;strokeColor=inherit;overflow=hidden;fillColor=none;top=0;left=0;bottom=0;right=0;pointerEvents=1;fontSize=16;" vertex="1" parent="7hdt7lljPyfR1eicb4f4-444">
          <mxGeometry x="14" width="12" height="6" as="geometry">
            <mxRectangle width="12" height="6" as="alternateBounds" />
          </mxGeometry>
        </mxCell>
        <mxCell id="7hdt7lljPyfR1eicb4f4-447" value="" style="shape=partialRectangle;html=1;whiteSpace=wrap;connectable=0;strokeColor=inherit;overflow=hidden;fillColor=none;top=0;left=0;bottom=0;right=0;pointerEvents=1;fontSize=16;" vertex="1" parent="7hdt7lljPyfR1eicb4f4-444">
          <mxGeometry x="26" width="14" height="6" as="geometry">
            <mxRectangle width="14" height="6" as="alternateBounds" />
          </mxGeometry>
        </mxCell>
        <mxCell id="7hdt7lljPyfR1eicb4f4-170" value="" style="rounded=0;whiteSpace=wrap;html=1;" vertex="1" parent="1">
          <mxGeometry x="120" y="400" width="450" height="60" as="geometry" />
        </mxCell>
        <mxCell id="7hdt7lljPyfR1eicb4f4-171" value="" style="rounded=0;whiteSpace=wrap;html=1;" vertex="1" parent="1">
          <mxGeometry x="580" y="330" width="160" height="150" as="geometry" />
        </mxCell>
        <mxCell id="7hdt7lljPyfR1eicb4f4-172" value="&lt;div&gt;Armazenamento&amp;nbsp;&lt;/div&gt;&lt;div&gt;Profundo&lt;/div&gt;" style="text;html=1;strokeColor=none;fillColor=none;align=center;verticalAlign=middle;whiteSpace=wrap;rounded=0;" vertex="1" parent="1">
          <mxGeometry x="120" y="415" width="110" height="30" as="geometry" />
        </mxCell>
        <mxCell id="7hdt7lljPyfR1eicb4f4-251" value="T1" style="shape=table;startSize=30;container=1;collapsible=0;childLayout=tableLayout;strokeColor=default;fontSize=16;" vertex="1" parent="1">
          <mxGeometry x="240" y="410" width="40" height="40" as="geometry" />
        </mxCell>
        <mxCell id="7hdt7lljPyfR1eicb4f4-252" value="" style="shape=tableRow;horizontal=0;startSize=0;swimlaneHead=0;swimlaneBody=0;strokeColor=inherit;top=0;left=0;bottom=0;right=0;collapsible=0;dropTarget=0;fillColor=none;points=[[0,0.5],[1,0.5]];portConstraint=eastwest;fontSize=16;" vertex="1" parent="7hdt7lljPyfR1eicb4f4-251">
          <mxGeometry y="30" width="40" height="4" as="geometry" />
        </mxCell>
        <mxCell id="7hdt7lljPyfR1eicb4f4-253" value="" style="shape=partialRectangle;html=1;whiteSpace=wrap;connectable=0;strokeColor=inherit;overflow=hidden;fillColor=none;top=0;left=0;bottom=0;right=0;pointerEvents=1;fontSize=16;" vertex="1" parent="7hdt7lljPyfR1eicb4f4-252">
          <mxGeometry width="14" height="4" as="geometry">
            <mxRectangle width="14" height="4" as="alternateBounds" />
          </mxGeometry>
        </mxCell>
        <mxCell id="7hdt7lljPyfR1eicb4f4-254" value="" style="shape=partialRectangle;html=1;whiteSpace=wrap;connectable=0;strokeColor=inherit;overflow=hidden;fillColor=none;top=0;left=0;bottom=0;right=0;pointerEvents=1;fontSize=16;" vertex="1" parent="7hdt7lljPyfR1eicb4f4-252">
          <mxGeometry x="14" width="12" height="4" as="geometry">
            <mxRectangle width="12" height="4" as="alternateBounds" />
          </mxGeometry>
        </mxCell>
        <mxCell id="7hdt7lljPyfR1eicb4f4-255" value="" style="shape=partialRectangle;html=1;whiteSpace=wrap;connectable=0;strokeColor=inherit;overflow=hidden;fillColor=none;top=0;left=0;bottom=0;right=0;pointerEvents=1;fontSize=16;" vertex="1" parent="7hdt7lljPyfR1eicb4f4-252">
          <mxGeometry x="26" width="14" height="4" as="geometry">
            <mxRectangle width="14" height="4" as="alternateBounds" />
          </mxGeometry>
        </mxCell>
        <mxCell id="7hdt7lljPyfR1eicb4f4-256" value="" style="shape=tableRow;horizontal=0;startSize=0;swimlaneHead=0;swimlaneBody=0;strokeColor=inherit;top=0;left=0;bottom=0;right=0;collapsible=0;dropTarget=0;fillColor=none;points=[[0,0.5],[1,0.5]];portConstraint=eastwest;fontSize=16;" vertex="1" parent="7hdt7lljPyfR1eicb4f4-251">
          <mxGeometry y="34" width="40" height="3" as="geometry" />
        </mxCell>
        <mxCell id="7hdt7lljPyfR1eicb4f4-257" value="" style="shape=partialRectangle;html=1;whiteSpace=wrap;connectable=0;strokeColor=inherit;overflow=hidden;fillColor=none;top=0;left=0;bottom=0;right=0;pointerEvents=1;fontSize=16;" vertex="1" parent="7hdt7lljPyfR1eicb4f4-256">
          <mxGeometry width="14" height="3" as="geometry">
            <mxRectangle width="14" height="3" as="alternateBounds" />
          </mxGeometry>
        </mxCell>
        <mxCell id="7hdt7lljPyfR1eicb4f4-258" value="" style="shape=partialRectangle;html=1;whiteSpace=wrap;connectable=0;strokeColor=inherit;overflow=hidden;fillColor=none;top=0;left=0;bottom=0;right=0;pointerEvents=1;fontSize=16;" vertex="1" parent="7hdt7lljPyfR1eicb4f4-256">
          <mxGeometry x="14" width="12" height="3" as="geometry">
            <mxRectangle width="12" height="3" as="alternateBounds" />
          </mxGeometry>
        </mxCell>
        <mxCell id="7hdt7lljPyfR1eicb4f4-259" value="" style="shape=partialRectangle;html=1;whiteSpace=wrap;connectable=0;strokeColor=inherit;overflow=hidden;fillColor=none;top=0;left=0;bottom=0;right=0;pointerEvents=1;fontSize=16;" vertex="1" parent="7hdt7lljPyfR1eicb4f4-256">
          <mxGeometry x="26" width="14" height="3" as="geometry">
            <mxRectangle width="14" height="3" as="alternateBounds" />
          </mxGeometry>
        </mxCell>
        <mxCell id="7hdt7lljPyfR1eicb4f4-260" value="" style="shape=tableRow;horizontal=0;startSize=0;swimlaneHead=0;swimlaneBody=0;strokeColor=inherit;top=0;left=0;bottom=0;right=0;collapsible=0;dropTarget=0;fillColor=none;points=[[0,0.5],[1,0.5]];portConstraint=eastwest;fontSize=16;" vertex="1" parent="7hdt7lljPyfR1eicb4f4-251">
          <mxGeometry y="37" width="40" height="3" as="geometry" />
        </mxCell>
        <mxCell id="7hdt7lljPyfR1eicb4f4-261" value="" style="shape=partialRectangle;html=1;whiteSpace=wrap;connectable=0;strokeColor=inherit;overflow=hidden;fillColor=none;top=0;left=0;bottom=0;right=0;pointerEvents=1;fontSize=16;" vertex="1" parent="7hdt7lljPyfR1eicb4f4-260">
          <mxGeometry width="14" height="3" as="geometry">
            <mxRectangle width="14" height="3" as="alternateBounds" />
          </mxGeometry>
        </mxCell>
        <mxCell id="7hdt7lljPyfR1eicb4f4-262" value="" style="shape=partialRectangle;html=1;whiteSpace=wrap;connectable=0;strokeColor=inherit;overflow=hidden;fillColor=none;top=0;left=0;bottom=0;right=0;pointerEvents=1;fontSize=16;" vertex="1" parent="7hdt7lljPyfR1eicb4f4-260">
          <mxGeometry x="14" width="12" height="3" as="geometry">
            <mxRectangle width="12" height="3" as="alternateBounds" />
          </mxGeometry>
        </mxCell>
        <mxCell id="7hdt7lljPyfR1eicb4f4-263" value="" style="shape=partialRectangle;html=1;whiteSpace=wrap;connectable=0;strokeColor=inherit;overflow=hidden;fillColor=none;top=0;left=0;bottom=0;right=0;pointerEvents=1;fontSize=16;" vertex="1" parent="7hdt7lljPyfR1eicb4f4-260">
          <mxGeometry x="26" width="14" height="3" as="geometry">
            <mxRectangle width="14" height="3" as="alternateBounds" />
          </mxGeometry>
        </mxCell>
        <mxCell id="7hdt7lljPyfR1eicb4f4-264" value="T2" style="shape=table;startSize=30;container=1;collapsible=0;childLayout=tableLayout;strokeColor=default;fontSize=16;" vertex="1" parent="1">
          <mxGeometry x="292" y="410" width="40" height="40" as="geometry" />
        </mxCell>
        <mxCell id="7hdt7lljPyfR1eicb4f4-265" value="" style="shape=tableRow;horizontal=0;startSize=0;swimlaneHead=0;swimlaneBody=0;strokeColor=inherit;top=0;left=0;bottom=0;right=0;collapsible=0;dropTarget=0;fillColor=none;points=[[0,0.5],[1,0.5]];portConstraint=eastwest;fontSize=16;" vertex="1" parent="7hdt7lljPyfR1eicb4f4-264">
          <mxGeometry y="30" width="40" height="4" as="geometry" />
        </mxCell>
        <mxCell id="7hdt7lljPyfR1eicb4f4-266" value="" style="shape=partialRectangle;html=1;whiteSpace=wrap;connectable=0;strokeColor=inherit;overflow=hidden;fillColor=none;top=0;left=0;bottom=0;right=0;pointerEvents=1;fontSize=16;" vertex="1" parent="7hdt7lljPyfR1eicb4f4-265">
          <mxGeometry width="14" height="4" as="geometry">
            <mxRectangle width="14" height="4" as="alternateBounds" />
          </mxGeometry>
        </mxCell>
        <mxCell id="7hdt7lljPyfR1eicb4f4-267" value="" style="shape=partialRectangle;html=1;whiteSpace=wrap;connectable=0;strokeColor=inherit;overflow=hidden;fillColor=none;top=0;left=0;bottom=0;right=0;pointerEvents=1;fontSize=16;" vertex="1" parent="7hdt7lljPyfR1eicb4f4-265">
          <mxGeometry x="14" width="12" height="4" as="geometry">
            <mxRectangle width="12" height="4" as="alternateBounds" />
          </mxGeometry>
        </mxCell>
        <mxCell id="7hdt7lljPyfR1eicb4f4-268" value="" style="shape=partialRectangle;html=1;whiteSpace=wrap;connectable=0;strokeColor=inherit;overflow=hidden;fillColor=none;top=0;left=0;bottom=0;right=0;pointerEvents=1;fontSize=16;" vertex="1" parent="7hdt7lljPyfR1eicb4f4-265">
          <mxGeometry x="26" width="14" height="4" as="geometry">
            <mxRectangle width="14" height="4" as="alternateBounds" />
          </mxGeometry>
        </mxCell>
        <mxCell id="7hdt7lljPyfR1eicb4f4-269" value="" style="shape=tableRow;horizontal=0;startSize=0;swimlaneHead=0;swimlaneBody=0;strokeColor=inherit;top=0;left=0;bottom=0;right=0;collapsible=0;dropTarget=0;fillColor=none;points=[[0,0.5],[1,0.5]];portConstraint=eastwest;fontSize=16;" vertex="1" parent="7hdt7lljPyfR1eicb4f4-264">
          <mxGeometry y="34" width="40" height="3" as="geometry" />
        </mxCell>
        <mxCell id="7hdt7lljPyfR1eicb4f4-270" value="" style="shape=partialRectangle;html=1;whiteSpace=wrap;connectable=0;strokeColor=inherit;overflow=hidden;fillColor=none;top=0;left=0;bottom=0;right=0;pointerEvents=1;fontSize=16;" vertex="1" parent="7hdt7lljPyfR1eicb4f4-269">
          <mxGeometry width="14" height="3" as="geometry">
            <mxRectangle width="14" height="3" as="alternateBounds" />
          </mxGeometry>
        </mxCell>
        <mxCell id="7hdt7lljPyfR1eicb4f4-271" value="" style="shape=partialRectangle;html=1;whiteSpace=wrap;connectable=0;strokeColor=inherit;overflow=hidden;fillColor=none;top=0;left=0;bottom=0;right=0;pointerEvents=1;fontSize=16;" vertex="1" parent="7hdt7lljPyfR1eicb4f4-269">
          <mxGeometry x="14" width="12" height="3" as="geometry">
            <mxRectangle width="12" height="3" as="alternateBounds" />
          </mxGeometry>
        </mxCell>
        <mxCell id="7hdt7lljPyfR1eicb4f4-272" value="" style="shape=partialRectangle;html=1;whiteSpace=wrap;connectable=0;strokeColor=inherit;overflow=hidden;fillColor=none;top=0;left=0;bottom=0;right=0;pointerEvents=1;fontSize=16;" vertex="1" parent="7hdt7lljPyfR1eicb4f4-269">
          <mxGeometry x="26" width="14" height="3" as="geometry">
            <mxRectangle width="14" height="3" as="alternateBounds" />
          </mxGeometry>
        </mxCell>
        <mxCell id="7hdt7lljPyfR1eicb4f4-273" value="" style="shape=tableRow;horizontal=0;startSize=0;swimlaneHead=0;swimlaneBody=0;strokeColor=inherit;top=0;left=0;bottom=0;right=0;collapsible=0;dropTarget=0;fillColor=none;points=[[0,0.5],[1,0.5]];portConstraint=eastwest;fontSize=16;" vertex="1" parent="7hdt7lljPyfR1eicb4f4-264">
          <mxGeometry y="37" width="40" height="3" as="geometry" />
        </mxCell>
        <mxCell id="7hdt7lljPyfR1eicb4f4-274" value="" style="shape=partialRectangle;html=1;whiteSpace=wrap;connectable=0;strokeColor=inherit;overflow=hidden;fillColor=none;top=0;left=0;bottom=0;right=0;pointerEvents=1;fontSize=16;" vertex="1" parent="7hdt7lljPyfR1eicb4f4-273">
          <mxGeometry width="14" height="3" as="geometry">
            <mxRectangle width="14" height="3" as="alternateBounds" />
          </mxGeometry>
        </mxCell>
        <mxCell id="7hdt7lljPyfR1eicb4f4-275" value="" style="shape=partialRectangle;html=1;whiteSpace=wrap;connectable=0;strokeColor=inherit;overflow=hidden;fillColor=none;top=0;left=0;bottom=0;right=0;pointerEvents=1;fontSize=16;" vertex="1" parent="7hdt7lljPyfR1eicb4f4-273">
          <mxGeometry x="14" width="12" height="3" as="geometry">
            <mxRectangle width="12" height="3" as="alternateBounds" />
          </mxGeometry>
        </mxCell>
        <mxCell id="7hdt7lljPyfR1eicb4f4-276" value="" style="shape=partialRectangle;html=1;whiteSpace=wrap;connectable=0;strokeColor=inherit;overflow=hidden;fillColor=none;top=0;left=0;bottom=0;right=0;pointerEvents=1;fontSize=16;" vertex="1" parent="7hdt7lljPyfR1eicb4f4-273">
          <mxGeometry x="26" width="14" height="3" as="geometry">
            <mxRectangle width="14" height="3" as="alternateBounds" />
          </mxGeometry>
        </mxCell>
        <mxCell id="7hdt7lljPyfR1eicb4f4-277" value="T3" style="shape=table;startSize=30;container=1;collapsible=0;childLayout=tableLayout;strokeColor=default;fontSize=16;" vertex="1" parent="1">
          <mxGeometry x="350" y="410" width="40" height="40" as="geometry" />
        </mxCell>
        <mxCell id="7hdt7lljPyfR1eicb4f4-278" value="" style="shape=tableRow;horizontal=0;startSize=0;swimlaneHead=0;swimlaneBody=0;strokeColor=inherit;top=0;left=0;bottom=0;right=0;collapsible=0;dropTarget=0;fillColor=none;points=[[0,0.5],[1,0.5]];portConstraint=eastwest;fontSize=16;" vertex="1" parent="7hdt7lljPyfR1eicb4f4-277">
          <mxGeometry y="30" width="40" height="4" as="geometry" />
        </mxCell>
        <mxCell id="7hdt7lljPyfR1eicb4f4-279" value="" style="shape=partialRectangle;html=1;whiteSpace=wrap;connectable=0;strokeColor=inherit;overflow=hidden;fillColor=none;top=0;left=0;bottom=0;right=0;pointerEvents=1;fontSize=16;" vertex="1" parent="7hdt7lljPyfR1eicb4f4-278">
          <mxGeometry width="14" height="4" as="geometry">
            <mxRectangle width="14" height="4" as="alternateBounds" />
          </mxGeometry>
        </mxCell>
        <mxCell id="7hdt7lljPyfR1eicb4f4-280" value="" style="shape=partialRectangle;html=1;whiteSpace=wrap;connectable=0;strokeColor=inherit;overflow=hidden;fillColor=none;top=0;left=0;bottom=0;right=0;pointerEvents=1;fontSize=16;" vertex="1" parent="7hdt7lljPyfR1eicb4f4-278">
          <mxGeometry x="14" width="12" height="4" as="geometry">
            <mxRectangle width="12" height="4" as="alternateBounds" />
          </mxGeometry>
        </mxCell>
        <mxCell id="7hdt7lljPyfR1eicb4f4-281" value="" style="shape=partialRectangle;html=1;whiteSpace=wrap;connectable=0;strokeColor=inherit;overflow=hidden;fillColor=none;top=0;left=0;bottom=0;right=0;pointerEvents=1;fontSize=16;" vertex="1" parent="7hdt7lljPyfR1eicb4f4-278">
          <mxGeometry x="26" width="14" height="4" as="geometry">
            <mxRectangle width="14" height="4" as="alternateBounds" />
          </mxGeometry>
        </mxCell>
        <mxCell id="7hdt7lljPyfR1eicb4f4-282" value="" style="shape=tableRow;horizontal=0;startSize=0;swimlaneHead=0;swimlaneBody=0;strokeColor=inherit;top=0;left=0;bottom=0;right=0;collapsible=0;dropTarget=0;fillColor=none;points=[[0,0.5],[1,0.5]];portConstraint=eastwest;fontSize=16;" vertex="1" parent="7hdt7lljPyfR1eicb4f4-277">
          <mxGeometry y="34" width="40" height="3" as="geometry" />
        </mxCell>
        <mxCell id="7hdt7lljPyfR1eicb4f4-283" value="" style="shape=partialRectangle;html=1;whiteSpace=wrap;connectable=0;strokeColor=inherit;overflow=hidden;fillColor=none;top=0;left=0;bottom=0;right=0;pointerEvents=1;fontSize=16;" vertex="1" parent="7hdt7lljPyfR1eicb4f4-282">
          <mxGeometry width="14" height="3" as="geometry">
            <mxRectangle width="14" height="3" as="alternateBounds" />
          </mxGeometry>
        </mxCell>
        <mxCell id="7hdt7lljPyfR1eicb4f4-284" value="" style="shape=partialRectangle;html=1;whiteSpace=wrap;connectable=0;strokeColor=inherit;overflow=hidden;fillColor=none;top=0;left=0;bottom=0;right=0;pointerEvents=1;fontSize=16;" vertex="1" parent="7hdt7lljPyfR1eicb4f4-282">
          <mxGeometry x="14" width="12" height="3" as="geometry">
            <mxRectangle width="12" height="3" as="alternateBounds" />
          </mxGeometry>
        </mxCell>
        <mxCell id="7hdt7lljPyfR1eicb4f4-285" value="" style="shape=partialRectangle;html=1;whiteSpace=wrap;connectable=0;strokeColor=inherit;overflow=hidden;fillColor=none;top=0;left=0;bottom=0;right=0;pointerEvents=1;fontSize=16;" vertex="1" parent="7hdt7lljPyfR1eicb4f4-282">
          <mxGeometry x="26" width="14" height="3" as="geometry">
            <mxRectangle width="14" height="3" as="alternateBounds" />
          </mxGeometry>
        </mxCell>
        <mxCell id="7hdt7lljPyfR1eicb4f4-286" value="" style="shape=tableRow;horizontal=0;startSize=0;swimlaneHead=0;swimlaneBody=0;strokeColor=inherit;top=0;left=0;bottom=0;right=0;collapsible=0;dropTarget=0;fillColor=none;points=[[0,0.5],[1,0.5]];portConstraint=eastwest;fontSize=16;" vertex="1" parent="7hdt7lljPyfR1eicb4f4-277">
          <mxGeometry y="37" width="40" height="3" as="geometry" />
        </mxCell>
        <mxCell id="7hdt7lljPyfR1eicb4f4-287" value="" style="shape=partialRectangle;html=1;whiteSpace=wrap;connectable=0;strokeColor=inherit;overflow=hidden;fillColor=none;top=0;left=0;bottom=0;right=0;pointerEvents=1;fontSize=16;" vertex="1" parent="7hdt7lljPyfR1eicb4f4-286">
          <mxGeometry width="14" height="3" as="geometry">
            <mxRectangle width="14" height="3" as="alternateBounds" />
          </mxGeometry>
        </mxCell>
        <mxCell id="7hdt7lljPyfR1eicb4f4-288" value="" style="shape=partialRectangle;html=1;whiteSpace=wrap;connectable=0;strokeColor=inherit;overflow=hidden;fillColor=none;top=0;left=0;bottom=0;right=0;pointerEvents=1;fontSize=16;" vertex="1" parent="7hdt7lljPyfR1eicb4f4-286">
          <mxGeometry x="14" width="12" height="3" as="geometry">
            <mxRectangle width="12" height="3" as="alternateBounds" />
          </mxGeometry>
        </mxCell>
        <mxCell id="7hdt7lljPyfR1eicb4f4-289" value="" style="shape=partialRectangle;html=1;whiteSpace=wrap;connectable=0;strokeColor=inherit;overflow=hidden;fillColor=none;top=0;left=0;bottom=0;right=0;pointerEvents=1;fontSize=16;" vertex="1" parent="7hdt7lljPyfR1eicb4f4-286">
          <mxGeometry x="26" width="14" height="3" as="geometry">
            <mxRectangle width="14" height="3" as="alternateBounds" />
          </mxGeometry>
        </mxCell>
        <mxCell id="7hdt7lljPyfR1eicb4f4-318" value="T4" style="shape=table;startSize=30;container=1;collapsible=0;childLayout=tableLayout;strokeColor=default;fontSize=16;" vertex="1" parent="1">
          <mxGeometry x="404" y="410" width="40" height="40" as="geometry" />
        </mxCell>
        <mxCell id="7hdt7lljPyfR1eicb4f4-319" value="" style="shape=tableRow;horizontal=0;startSize=0;swimlaneHead=0;swimlaneBody=0;strokeColor=inherit;top=0;left=0;bottom=0;right=0;collapsible=0;dropTarget=0;fillColor=none;points=[[0,0.5],[1,0.5]];portConstraint=eastwest;fontSize=16;" vertex="1" parent="7hdt7lljPyfR1eicb4f4-318">
          <mxGeometry y="30" width="40" height="4" as="geometry" />
        </mxCell>
        <mxCell id="7hdt7lljPyfR1eicb4f4-320" value="" style="shape=partialRectangle;html=1;whiteSpace=wrap;connectable=0;strokeColor=inherit;overflow=hidden;fillColor=none;top=0;left=0;bottom=0;right=0;pointerEvents=1;fontSize=16;" vertex="1" parent="7hdt7lljPyfR1eicb4f4-319">
          <mxGeometry width="14" height="4" as="geometry">
            <mxRectangle width="14" height="4" as="alternateBounds" />
          </mxGeometry>
        </mxCell>
        <mxCell id="7hdt7lljPyfR1eicb4f4-321" value="" style="shape=partialRectangle;html=1;whiteSpace=wrap;connectable=0;strokeColor=inherit;overflow=hidden;fillColor=none;top=0;left=0;bottom=0;right=0;pointerEvents=1;fontSize=16;" vertex="1" parent="7hdt7lljPyfR1eicb4f4-319">
          <mxGeometry x="14" width="12" height="4" as="geometry">
            <mxRectangle width="12" height="4" as="alternateBounds" />
          </mxGeometry>
        </mxCell>
        <mxCell id="7hdt7lljPyfR1eicb4f4-322" value="" style="shape=partialRectangle;html=1;whiteSpace=wrap;connectable=0;strokeColor=inherit;overflow=hidden;fillColor=none;top=0;left=0;bottom=0;right=0;pointerEvents=1;fontSize=16;" vertex="1" parent="7hdt7lljPyfR1eicb4f4-319">
          <mxGeometry x="26" width="14" height="4" as="geometry">
            <mxRectangle width="14" height="4" as="alternateBounds" />
          </mxGeometry>
        </mxCell>
        <mxCell id="7hdt7lljPyfR1eicb4f4-323" value="" style="shape=tableRow;horizontal=0;startSize=0;swimlaneHead=0;swimlaneBody=0;strokeColor=inherit;top=0;left=0;bottom=0;right=0;collapsible=0;dropTarget=0;fillColor=none;points=[[0,0.5],[1,0.5]];portConstraint=eastwest;fontSize=16;" vertex="1" parent="7hdt7lljPyfR1eicb4f4-318">
          <mxGeometry y="34" width="40" height="3" as="geometry" />
        </mxCell>
        <mxCell id="7hdt7lljPyfR1eicb4f4-324" value="" style="shape=partialRectangle;html=1;whiteSpace=wrap;connectable=0;strokeColor=inherit;overflow=hidden;fillColor=none;top=0;left=0;bottom=0;right=0;pointerEvents=1;fontSize=16;" vertex="1" parent="7hdt7lljPyfR1eicb4f4-323">
          <mxGeometry width="14" height="3" as="geometry">
            <mxRectangle width="14" height="3" as="alternateBounds" />
          </mxGeometry>
        </mxCell>
        <mxCell id="7hdt7lljPyfR1eicb4f4-325" value="" style="shape=partialRectangle;html=1;whiteSpace=wrap;connectable=0;strokeColor=inherit;overflow=hidden;fillColor=none;top=0;left=0;bottom=0;right=0;pointerEvents=1;fontSize=16;" vertex="1" parent="7hdt7lljPyfR1eicb4f4-323">
          <mxGeometry x="14" width="12" height="3" as="geometry">
            <mxRectangle width="12" height="3" as="alternateBounds" />
          </mxGeometry>
        </mxCell>
        <mxCell id="7hdt7lljPyfR1eicb4f4-326" value="" style="shape=partialRectangle;html=1;whiteSpace=wrap;connectable=0;strokeColor=inherit;overflow=hidden;fillColor=none;top=0;left=0;bottom=0;right=0;pointerEvents=1;fontSize=16;" vertex="1" parent="7hdt7lljPyfR1eicb4f4-323">
          <mxGeometry x="26" width="14" height="3" as="geometry">
            <mxRectangle width="14" height="3" as="alternateBounds" />
          </mxGeometry>
        </mxCell>
        <mxCell id="7hdt7lljPyfR1eicb4f4-327" value="" style="shape=tableRow;horizontal=0;startSize=0;swimlaneHead=0;swimlaneBody=0;strokeColor=inherit;top=0;left=0;bottom=0;right=0;collapsible=0;dropTarget=0;fillColor=none;points=[[0,0.5],[1,0.5]];portConstraint=eastwest;fontSize=16;" vertex="1" parent="7hdt7lljPyfR1eicb4f4-318">
          <mxGeometry y="37" width="40" height="3" as="geometry" />
        </mxCell>
        <mxCell id="7hdt7lljPyfR1eicb4f4-328" value="" style="shape=partialRectangle;html=1;whiteSpace=wrap;connectable=0;strokeColor=inherit;overflow=hidden;fillColor=none;top=0;left=0;bottom=0;right=0;pointerEvents=1;fontSize=16;" vertex="1" parent="7hdt7lljPyfR1eicb4f4-327">
          <mxGeometry width="14" height="3" as="geometry">
            <mxRectangle width="14" height="3" as="alternateBounds" />
          </mxGeometry>
        </mxCell>
        <mxCell id="7hdt7lljPyfR1eicb4f4-329" value="" style="shape=partialRectangle;html=1;whiteSpace=wrap;connectable=0;strokeColor=inherit;overflow=hidden;fillColor=none;top=0;left=0;bottom=0;right=0;pointerEvents=1;fontSize=16;" vertex="1" parent="7hdt7lljPyfR1eicb4f4-327">
          <mxGeometry x="14" width="12" height="3" as="geometry">
            <mxRectangle width="12" height="3" as="alternateBounds" />
          </mxGeometry>
        </mxCell>
        <mxCell id="7hdt7lljPyfR1eicb4f4-330" value="" style="shape=partialRectangle;html=1;whiteSpace=wrap;connectable=0;strokeColor=inherit;overflow=hidden;fillColor=none;top=0;left=0;bottom=0;right=0;pointerEvents=1;fontSize=16;" vertex="1" parent="7hdt7lljPyfR1eicb4f4-327">
          <mxGeometry x="26" width="14" height="3" as="geometry">
            <mxRectangle width="14" height="3" as="alternateBounds" />
          </mxGeometry>
        </mxCell>
        <mxCell id="7hdt7lljPyfR1eicb4f4-331" value="T5" style="shape=table;startSize=30;container=1;collapsible=0;childLayout=tableLayout;strokeColor=default;fontSize=16;" vertex="1" parent="1">
          <mxGeometry x="460" y="410" width="40" height="40" as="geometry" />
        </mxCell>
        <mxCell id="7hdt7lljPyfR1eicb4f4-332" value="" style="shape=tableRow;horizontal=0;startSize=0;swimlaneHead=0;swimlaneBody=0;strokeColor=inherit;top=0;left=0;bottom=0;right=0;collapsible=0;dropTarget=0;fillColor=none;points=[[0,0.5],[1,0.5]];portConstraint=eastwest;fontSize=16;" vertex="1" parent="7hdt7lljPyfR1eicb4f4-331">
          <mxGeometry y="30" width="40" height="4" as="geometry" />
        </mxCell>
        <mxCell id="7hdt7lljPyfR1eicb4f4-333" value="" style="shape=partialRectangle;html=1;whiteSpace=wrap;connectable=0;strokeColor=inherit;overflow=hidden;fillColor=none;top=0;left=0;bottom=0;right=0;pointerEvents=1;fontSize=16;" vertex="1" parent="7hdt7lljPyfR1eicb4f4-332">
          <mxGeometry width="14" height="4" as="geometry">
            <mxRectangle width="14" height="4" as="alternateBounds" />
          </mxGeometry>
        </mxCell>
        <mxCell id="7hdt7lljPyfR1eicb4f4-334" value="" style="shape=partialRectangle;html=1;whiteSpace=wrap;connectable=0;strokeColor=inherit;overflow=hidden;fillColor=none;top=0;left=0;bottom=0;right=0;pointerEvents=1;fontSize=16;" vertex="1" parent="7hdt7lljPyfR1eicb4f4-332">
          <mxGeometry x="14" width="12" height="4" as="geometry">
            <mxRectangle width="12" height="4" as="alternateBounds" />
          </mxGeometry>
        </mxCell>
        <mxCell id="7hdt7lljPyfR1eicb4f4-335" value="" style="shape=partialRectangle;html=1;whiteSpace=wrap;connectable=0;strokeColor=inherit;overflow=hidden;fillColor=none;top=0;left=0;bottom=0;right=0;pointerEvents=1;fontSize=16;" vertex="1" parent="7hdt7lljPyfR1eicb4f4-332">
          <mxGeometry x="26" width="14" height="4" as="geometry">
            <mxRectangle width="14" height="4" as="alternateBounds" />
          </mxGeometry>
        </mxCell>
        <mxCell id="7hdt7lljPyfR1eicb4f4-336" value="" style="shape=tableRow;horizontal=0;startSize=0;swimlaneHead=0;swimlaneBody=0;strokeColor=inherit;top=0;left=0;bottom=0;right=0;collapsible=0;dropTarget=0;fillColor=none;points=[[0,0.5],[1,0.5]];portConstraint=eastwest;fontSize=16;" vertex="1" parent="7hdt7lljPyfR1eicb4f4-331">
          <mxGeometry y="34" width="40" height="3" as="geometry" />
        </mxCell>
        <mxCell id="7hdt7lljPyfR1eicb4f4-337" value="" style="shape=partialRectangle;html=1;whiteSpace=wrap;connectable=0;strokeColor=inherit;overflow=hidden;fillColor=none;top=0;left=0;bottom=0;right=0;pointerEvents=1;fontSize=16;" vertex="1" parent="7hdt7lljPyfR1eicb4f4-336">
          <mxGeometry width="14" height="3" as="geometry">
            <mxRectangle width="14" height="3" as="alternateBounds" />
          </mxGeometry>
        </mxCell>
        <mxCell id="7hdt7lljPyfR1eicb4f4-338" value="" style="shape=partialRectangle;html=1;whiteSpace=wrap;connectable=0;strokeColor=inherit;overflow=hidden;fillColor=none;top=0;left=0;bottom=0;right=0;pointerEvents=1;fontSize=16;" vertex="1" parent="7hdt7lljPyfR1eicb4f4-336">
          <mxGeometry x="14" width="12" height="3" as="geometry">
            <mxRectangle width="12" height="3" as="alternateBounds" />
          </mxGeometry>
        </mxCell>
        <mxCell id="7hdt7lljPyfR1eicb4f4-339" value="" style="shape=partialRectangle;html=1;whiteSpace=wrap;connectable=0;strokeColor=inherit;overflow=hidden;fillColor=none;top=0;left=0;bottom=0;right=0;pointerEvents=1;fontSize=16;" vertex="1" parent="7hdt7lljPyfR1eicb4f4-336">
          <mxGeometry x="26" width="14" height="3" as="geometry">
            <mxRectangle width="14" height="3" as="alternateBounds" />
          </mxGeometry>
        </mxCell>
        <mxCell id="7hdt7lljPyfR1eicb4f4-340" value="" style="shape=tableRow;horizontal=0;startSize=0;swimlaneHead=0;swimlaneBody=0;strokeColor=inherit;top=0;left=0;bottom=0;right=0;collapsible=0;dropTarget=0;fillColor=none;points=[[0,0.5],[1,0.5]];portConstraint=eastwest;fontSize=16;" vertex="1" parent="7hdt7lljPyfR1eicb4f4-331">
          <mxGeometry y="37" width="40" height="3" as="geometry" />
        </mxCell>
        <mxCell id="7hdt7lljPyfR1eicb4f4-341" value="" style="shape=partialRectangle;html=1;whiteSpace=wrap;connectable=0;strokeColor=inherit;overflow=hidden;fillColor=none;top=0;left=0;bottom=0;right=0;pointerEvents=1;fontSize=16;" vertex="1" parent="7hdt7lljPyfR1eicb4f4-340">
          <mxGeometry width="14" height="3" as="geometry">
            <mxRectangle width="14" height="3" as="alternateBounds" />
          </mxGeometry>
        </mxCell>
        <mxCell id="7hdt7lljPyfR1eicb4f4-342" value="" style="shape=partialRectangle;html=1;whiteSpace=wrap;connectable=0;strokeColor=inherit;overflow=hidden;fillColor=none;top=0;left=0;bottom=0;right=0;pointerEvents=1;fontSize=16;" vertex="1" parent="7hdt7lljPyfR1eicb4f4-340">
          <mxGeometry x="14" width="12" height="3" as="geometry">
            <mxRectangle width="12" height="3" as="alternateBounds" />
          </mxGeometry>
        </mxCell>
        <mxCell id="7hdt7lljPyfR1eicb4f4-343" value="" style="shape=partialRectangle;html=1;whiteSpace=wrap;connectable=0;strokeColor=inherit;overflow=hidden;fillColor=none;top=0;left=0;bottom=0;right=0;pointerEvents=1;fontSize=16;" vertex="1" parent="7hdt7lljPyfR1eicb4f4-340">
          <mxGeometry x="26" width="14" height="3" as="geometry">
            <mxRectangle width="14" height="3" as="alternateBounds" />
          </mxGeometry>
        </mxCell>
        <mxCell id="7hdt7lljPyfR1eicb4f4-344" value="T6" style="shape=table;startSize=30;container=1;collapsible=0;childLayout=tableLayout;strokeColor=default;fontSize=16;" vertex="1" parent="1">
          <mxGeometry x="520" y="410" width="40" height="40" as="geometry" />
        </mxCell>
        <mxCell id="7hdt7lljPyfR1eicb4f4-345" value="" style="shape=tableRow;horizontal=0;startSize=0;swimlaneHead=0;swimlaneBody=0;strokeColor=inherit;top=0;left=0;bottom=0;right=0;collapsible=0;dropTarget=0;fillColor=none;points=[[0,0.5],[1,0.5]];portConstraint=eastwest;fontSize=16;" vertex="1" parent="7hdt7lljPyfR1eicb4f4-344">
          <mxGeometry y="30" width="40" height="4" as="geometry" />
        </mxCell>
        <mxCell id="7hdt7lljPyfR1eicb4f4-346" value="" style="shape=partialRectangle;html=1;whiteSpace=wrap;connectable=0;strokeColor=inherit;overflow=hidden;fillColor=none;top=0;left=0;bottom=0;right=0;pointerEvents=1;fontSize=16;" vertex="1" parent="7hdt7lljPyfR1eicb4f4-345">
          <mxGeometry width="14" height="4" as="geometry">
            <mxRectangle width="14" height="4" as="alternateBounds" />
          </mxGeometry>
        </mxCell>
        <mxCell id="7hdt7lljPyfR1eicb4f4-347" value="" style="shape=partialRectangle;html=1;whiteSpace=wrap;connectable=0;strokeColor=inherit;overflow=hidden;fillColor=none;top=0;left=0;bottom=0;right=0;pointerEvents=1;fontSize=16;" vertex="1" parent="7hdt7lljPyfR1eicb4f4-345">
          <mxGeometry x="14" width="12" height="4" as="geometry">
            <mxRectangle width="12" height="4" as="alternateBounds" />
          </mxGeometry>
        </mxCell>
        <mxCell id="7hdt7lljPyfR1eicb4f4-348" value="" style="shape=partialRectangle;html=1;whiteSpace=wrap;connectable=0;strokeColor=inherit;overflow=hidden;fillColor=none;top=0;left=0;bottom=0;right=0;pointerEvents=1;fontSize=16;" vertex="1" parent="7hdt7lljPyfR1eicb4f4-345">
          <mxGeometry x="26" width="14" height="4" as="geometry">
            <mxRectangle width="14" height="4" as="alternateBounds" />
          </mxGeometry>
        </mxCell>
        <mxCell id="7hdt7lljPyfR1eicb4f4-349" value="" style="shape=tableRow;horizontal=0;startSize=0;swimlaneHead=0;swimlaneBody=0;strokeColor=inherit;top=0;left=0;bottom=0;right=0;collapsible=0;dropTarget=0;fillColor=none;points=[[0,0.5],[1,0.5]];portConstraint=eastwest;fontSize=16;" vertex="1" parent="7hdt7lljPyfR1eicb4f4-344">
          <mxGeometry y="34" width="40" height="3" as="geometry" />
        </mxCell>
        <mxCell id="7hdt7lljPyfR1eicb4f4-350" value="" style="shape=partialRectangle;html=1;whiteSpace=wrap;connectable=0;strokeColor=inherit;overflow=hidden;fillColor=none;top=0;left=0;bottom=0;right=0;pointerEvents=1;fontSize=16;" vertex="1" parent="7hdt7lljPyfR1eicb4f4-349">
          <mxGeometry width="14" height="3" as="geometry">
            <mxRectangle width="14" height="3" as="alternateBounds" />
          </mxGeometry>
        </mxCell>
        <mxCell id="7hdt7lljPyfR1eicb4f4-351" value="" style="shape=partialRectangle;html=1;whiteSpace=wrap;connectable=0;strokeColor=inherit;overflow=hidden;fillColor=none;top=0;left=0;bottom=0;right=0;pointerEvents=1;fontSize=16;" vertex="1" parent="7hdt7lljPyfR1eicb4f4-349">
          <mxGeometry x="14" width="12" height="3" as="geometry">
            <mxRectangle width="12" height="3" as="alternateBounds" />
          </mxGeometry>
        </mxCell>
        <mxCell id="7hdt7lljPyfR1eicb4f4-352" value="" style="shape=partialRectangle;html=1;whiteSpace=wrap;connectable=0;strokeColor=inherit;overflow=hidden;fillColor=none;top=0;left=0;bottom=0;right=0;pointerEvents=1;fontSize=16;" vertex="1" parent="7hdt7lljPyfR1eicb4f4-349">
          <mxGeometry x="26" width="14" height="3" as="geometry">
            <mxRectangle width="14" height="3" as="alternateBounds" />
          </mxGeometry>
        </mxCell>
        <mxCell id="7hdt7lljPyfR1eicb4f4-353" value="" style="shape=tableRow;horizontal=0;startSize=0;swimlaneHead=0;swimlaneBody=0;strokeColor=inherit;top=0;left=0;bottom=0;right=0;collapsible=0;dropTarget=0;fillColor=none;points=[[0,0.5],[1,0.5]];portConstraint=eastwest;fontSize=16;" vertex="1" parent="7hdt7lljPyfR1eicb4f4-344">
          <mxGeometry y="37" width="40" height="3" as="geometry" />
        </mxCell>
        <mxCell id="7hdt7lljPyfR1eicb4f4-354" value="" style="shape=partialRectangle;html=1;whiteSpace=wrap;connectable=0;strokeColor=inherit;overflow=hidden;fillColor=none;top=0;left=0;bottom=0;right=0;pointerEvents=1;fontSize=16;" vertex="1" parent="7hdt7lljPyfR1eicb4f4-353">
          <mxGeometry width="14" height="3" as="geometry">
            <mxRectangle width="14" height="3" as="alternateBounds" />
          </mxGeometry>
        </mxCell>
        <mxCell id="7hdt7lljPyfR1eicb4f4-355" value="" style="shape=partialRectangle;html=1;whiteSpace=wrap;connectable=0;strokeColor=inherit;overflow=hidden;fillColor=none;top=0;left=0;bottom=0;right=0;pointerEvents=1;fontSize=16;" vertex="1" parent="7hdt7lljPyfR1eicb4f4-353">
          <mxGeometry x="14" width="12" height="3" as="geometry">
            <mxRectangle width="12" height="3" as="alternateBounds" />
          </mxGeometry>
        </mxCell>
        <mxCell id="7hdt7lljPyfR1eicb4f4-356" value="" style="shape=partialRectangle;html=1;whiteSpace=wrap;connectable=0;strokeColor=inherit;overflow=hidden;fillColor=none;top=0;left=0;bottom=0;right=0;pointerEvents=1;fontSize=16;" vertex="1" parent="7hdt7lljPyfR1eicb4f4-353">
          <mxGeometry x="26" width="14" height="3" as="geometry">
            <mxRectangle width="14" height="3" as="alternateBounds" />
          </mxGeometry>
        </mxCell>
        <mxCell id="7hdt7lljPyfR1eicb4f4-371" value="NÃ³ Mestre" style="text;html=1;strokeColor=none;fillColor=none;align=center;verticalAlign=middle;whiteSpace=wrap;rounded=0;" vertex="1" parent="1">
          <mxGeometry x="595" y="330" width="130" height="30" as="geometry" />
        </mxCell>
        <mxCell id="7hdt7lljPyfR1eicb4f4-372" value="Coordenador" style="rounded=0;whiteSpace=wrap;html=1;" vertex="1" parent="1">
          <mxGeometry x="585" y="360" width="150" height="30" as="geometry" />
        </mxCell>
        <mxCell id="7hdt7lljPyfR1eicb4f4-373" value="Apache Zookeeper" style="rounded=0;whiteSpace=wrap;html=1;" vertex="1" parent="1">
          <mxGeometry x="585" y="400" width="150" height="30" as="geometry" />
        </mxCell>
        <mxCell id="7hdt7lljPyfR1eicb4f4-374" value="Armazenamento Metadado" style="rounded=0;whiteSpace=wrap;html=1;" vertex="1" parent="1">
          <mxGeometry x="585" y="440" width="150" height="30" as="geometry" />
        </mxCell>
        <mxCell id="7hdt7lljPyfR1eicb4f4-375" value="" style="endArrow=classic;html=1;rounded=0;entryX=0.75;entryY=1;entryDx=0;entryDy=0;exitX=1;exitY=0;exitDx=0;exitDy=0;" edge="1" parent="1" source="7hdt7lljPyfR1eicb4f4-94" target="7hdt7lljPyfR1eicb4f4-1">
          <mxGeometry width="50" height="50" relative="1" as="geometry">
            <mxPoint x="410" y="290" as="sourcePoint" />
            <mxPoint x="460" y="240" as="targetPoint" />
          </mxGeometry>
        </mxCell>
        <mxCell id="7hdt7lljPyfR1eicb4f4-376" value="Resultado" style="text;html=1;align=center;verticalAlign=middle;resizable=0;points=[];autosize=1;strokeColor=none;fillColor=none;" vertex="1" parent="1">
          <mxGeometry x="450" y="160" width="80" height="30" as="geometry" />
        </mxCell>
        <mxCell id="7hdt7lljPyfR1eicb4f4-377" value="" style="endArrow=classic;html=1;rounded=0;entryX=0.5;entryY=0;entryDx=0;entryDy=0;exitX=0.75;exitY=1;exitDx=0;exitDy=0;" edge="1" parent="1" source="7hdt7lljPyfR1eicb4f4-1" target="7hdt7lljPyfR1eicb4f4-94">
          <mxGeometry width="50" height="50" relative="1" as="geometry">
            <mxPoint x="410" y="290" as="sourcePoint" />
            <mxPoint x="460" y="240" as="targetPoint" />
          </mxGeometry>
        </mxCell>
        <mxCell id="7hdt7lljPyfR1eicb4f4-378" value="Consulta" style="text;html=1;align=center;verticalAlign=middle;resizable=0;points=[];autosize=1;strokeColor=none;fillColor=none;" vertex="1" parent="1">
          <mxGeometry x="374" y="170" width="70" height="30" as="geometry" />
        </mxCell>
        <mxCell id="7hdt7lljPyfR1eicb4f4-379" value="" style="endArrow=classic;html=1;rounded=0;entryX=0.25;entryY=1;entryDx=0;entryDy=0;exitX=1;exitY=0;exitDx=0;exitDy=0;" edge="1" parent="1" source="7hdt7lljPyfR1eicb4f4-14" target="7hdt7lljPyfR1eicb4f4-1">
          <mxGeometry width="50" height="50" relative="1" as="geometry">
            <mxPoint x="410" y="290" as="sourcePoint" />
            <mxPoint x="460" y="240" as="targetPoint" />
          </mxGeometry>
        </mxCell>
        <mxCell id="7hdt7lljPyfR1eicb4f4-380" value="" style="endArrow=classic;html=1;rounded=0;entryX=0.5;entryY=0;entryDx=0;entryDy=0;" edge="1" parent="1" target="7hdt7lljPyfR1eicb4f4-15">
          <mxGeometry width="50" height="50" relative="1" as="geometry">
            <mxPoint x="310" y="160" as="sourcePoint" />
            <mxPoint x="460" y="240" as="targetPoint" />
          </mxGeometry>
        </mxCell>
        <mxCell id="7hdt7lljPyfR1eicb4f4-384" value="" style="group" vertex="1" connectable="0" parent="1">
          <mxGeometry x="260" y="80" width="380" height="80" as="geometry" />
        </mxCell>
        <mxCell id="7hdt7lljPyfR1eicb4f4-6" value="" style="group" vertex="1" connectable="0" parent="7hdt7lljPyfR1eicb4f4-384">
          <mxGeometry width="210" height="80" as="geometry" />
        </mxCell>
        <mxCell id="7hdt7lljPyfR1eicb4f4-1" value="" style="rounded=0;whiteSpace=wrap;html=1;" vertex="1" parent="7hdt7lljPyfR1eicb4f4-6">
          <mxGeometry width="210" height="80" as="geometry" />
        </mxCell>
        <mxCell id="7hdt7lljPyfR1eicb4f4-4" value="" style="group" vertex="1" connectable="0" parent="7hdt7lljPyfR1eicb4f4-6">
          <mxGeometry x="10" y="40" width="190" height="30" as="geometry" />
        </mxCell>
        <mxCell id="7hdt7lljPyfR1eicb4f4-2" value="Broker" style="rounded=0;whiteSpace=wrap;html=1;" vertex="1" parent="7hdt7lljPyfR1eicb4f4-4">
          <mxGeometry width="90" height="30" as="geometry" />
        </mxCell>
        <mxCell id="7hdt7lljPyfR1eicb4f4-3" value="Console Web" style="whiteSpace=wrap;html=1;" vertex="1" parent="7hdt7lljPyfR1eicb4f4-4">
          <mxGeometry x="100" width="90" height="30" as="geometry" />
        </mxCell>
        <mxCell id="7hdt7lljPyfR1eicb4f4-5" value="NÃ³ Query" style="text;html=1;strokeColor=none;fillColor=none;align=center;verticalAlign=middle;whiteSpace=wrap;rounded=0;" vertex="1" parent="7hdt7lljPyfR1eicb4f4-6">
          <mxGeometry x="75" width="60" height="30" as="geometry" />
        </mxCell>
        <mxCell id="7hdt7lljPyfR1eicb4f4-11" value="" style="group" vertex="1" connectable="0" parent="7hdt7lljPyfR1eicb4f4-384">
          <mxGeometry x="300" y="5" width="80" height="70" as="geometry" />
        </mxCell>
        <mxCell id="7hdt7lljPyfR1eicb4f4-383" style="edgeStyle=orthogonalEdgeStyle;rounded=0;orthogonalLoop=1;jettySize=auto;html=1;exitX=0;exitY=0;exitDx=0;exitDy=0;" edge="1" parent="7hdt7lljPyfR1eicb4f4-11" source="7hdt7lljPyfR1eicb4f4-9">
          <mxGeometry relative="1" as="geometry">
            <mxPoint x="-90" y="10.666666666666742" as="targetPoint" />
          </mxGeometry>
        </mxCell>
        <mxCell id="7hdt7lljPyfR1eicb4f4-9" value="" style="ellipse;whiteSpace=wrap;html=1;aspect=fixed;" vertex="1" parent="7hdt7lljPyfR1eicb4f4-11">
          <mxGeometry width="70" height="70" as="geometry" />
        </mxCell>
        <mxCell id="7hdt7lljPyfR1eicb4f4-8" value="" style="shape=actor;whiteSpace=wrap;html=1;" vertex="1" parent="7hdt7lljPyfR1eicb4f4-11">
          <mxGeometry x="20" y="8.75" width="30" height="35" as="geometry" />
        </mxCell>
        <mxCell id="7hdt7lljPyfR1eicb4f4-10" value="Cliente" style="text;html=1;align=center;verticalAlign=middle;resizable=0;points=[];autosize=1;strokeColor=none;fillColor=none;" vertex="1" parent="7hdt7lljPyfR1eicb4f4-11">
          <mxGeometry x="5" y="40" width="60" height="30" as="geometry" />
        </mxCell>
        <mxCell id="7hdt7lljPyfR1eicb4f4-382" style="edgeStyle=orthogonalEdgeStyle;rounded=0;orthogonalLoop=1;jettySize=auto;html=1;exitX=1;exitY=0.5;exitDx=0;exitDy=0;entryX=0;entryY=0.5;entryDx=0;entryDy=0;" edge="1" parent="7hdt7lljPyfR1eicb4f4-384" source="7hdt7lljPyfR1eicb4f4-1" target="7hdt7lljPyfR1eicb4f4-9">
          <mxGeometry relative="1" as="geometry" />
        </mxCell>
        <mxCell id="7hdt7lljPyfR1eicb4f4-385" value="" style="html=1;shadow=0;dashed=0;align=center;verticalAlign=middle;shape=mxgraph.arrows2.arrow;dy=0.6;dx=40;direction=east;notch=0;" vertex="1" parent="1">
          <mxGeometry x="25" y="240" width="95" height="15" as="geometry" />
        </mxCell>
        <mxCell id="7hdt7lljPyfR1eicb4f4-386" value="" style="html=1;shadow=0;dashed=0;align=center;verticalAlign=middle;shape=mxgraph.arrows2.arrow;dy=0.6;dx=40;direction=east;notch=0;" vertex="1" parent="1">
          <mxGeometry x="25" y="270" width="95" height="15" as="geometry" />
        </mxCell>
        <mxCell id="7hdt7lljPyfR1eicb4f4-387" value="&lt;div&gt;Dados em&lt;/div&gt;&lt;div&gt;Streaming&lt;br&gt;&lt;/div&gt;" style="text;html=1;align=center;verticalAlign=middle;resizable=0;points=[];autosize=1;strokeColor=none;fillColor=none;" vertex="1" parent="1">
          <mxGeometry x="20" y="200" width="80" height="40" as="geometry" />
        </mxCell>
        <mxCell id="7hdt7lljPyfR1eicb4f4-388" value="&lt;div&gt;Dados em&lt;/div&gt;&lt;div&gt;Lote&lt;br&gt;&lt;/div&gt;" style="text;html=1;align=center;verticalAlign=middle;resizable=0;points=[];autosize=1;strokeColor=none;fillColor=none;" vertex="1" parent="1">
          <mxGeometry x="25" y="290" width="80" height="40" as="geometry" />
        </mxCell>
        <mxCell id="7hdt7lljPyfR1eicb4f4-389" value="" style="line;strokeWidth=4;direction=south;html=1;perimeter=backbonePerimeter;points=[];outlineConnect=0;" vertex="1" parent="1">
          <mxGeometry x="50" y="275" width="10" height="5" as="geometry" />
        </mxCell>
        <mxCell id="7hdt7lljPyfR1eicb4f4-390" value="" style="line;strokeWidth=4;direction=south;html=1;perimeter=backbonePerimeter;points=[];outlineConnect=0;" vertex="1" parent="1">
          <mxGeometry x="30" y="275" width="10" height="5" as="geometry" />
        </mxCell>
        <mxCell id="7hdt7lljPyfR1eicb4f4-391" value="" style="line;strokeWidth=4;direction=south;html=1;perimeter=backbonePerimeter;points=[];outlineConnect=0;" vertex="1" parent="1">
          <mxGeometry x="40" y="275" width="10" height="5" as="geometry" />
        </mxCell>
        <mxCell id="7hdt7lljPyfR1eicb4f4-392" value="" style="line;strokeWidth=4;direction=south;html=1;perimeter=backbonePerimeter;points=[];outlineConnect=0;" vertex="1" parent="1">
          <mxGeometry x="60" y="275" width="10" height="5" as="geometry" />
        </mxCell>
        <mxCell id="7hdt7lljPyfR1eicb4f4-393" value="" style="shape=singleArrow;direction=south;whiteSpace=wrap;html=1;" vertex="1" parent="1">
          <mxGeometry x="145" y="320" width="35" height="80" as="geometry" />
        </mxCell>
        <mxCell id="7hdt7lljPyfR1eicb4f4-394" value="" style="shape=table;startSize=10;container=1;collapsible=0;childLayout=tableLayout;strokeColor=default;fontSize=16;" vertex="1" parent="1">
          <mxGeometry x="142.5" y="340" width="40" height="30" as="geometry" />
        </mxCell>
        <mxCell id="7hdt7lljPyfR1eicb4f4-395" value="" style="shape=tableRow;horizontal=0;startSize=0;swimlaneHead=0;swimlaneBody=0;strokeColor=inherit;top=0;left=0;bottom=0;right=0;collapsible=0;dropTarget=0;fillColor=none;points=[[0,0.5],[1,0.5]];portConstraint=eastwest;fontSize=16;" vertex="1" parent="7hdt7lljPyfR1eicb4f4-394">
          <mxGeometry y="10" width="40" height="8" as="geometry" />
        </mxCell>
        <mxCell id="7hdt7lljPyfR1eicb4f4-396" value="" style="shape=partialRectangle;html=1;whiteSpace=wrap;connectable=0;strokeColor=inherit;overflow=hidden;fillColor=none;top=0;left=0;bottom=0;right=0;pointerEvents=1;fontSize=16;" vertex="1" parent="7hdt7lljPyfR1eicb4f4-395">
          <mxGeometry width="14" height="8" as="geometry">
            <mxRectangle width="14" height="8" as="alternateBounds" />
          </mxGeometry>
        </mxCell>
        <mxCell id="7hdt7lljPyfR1eicb4f4-397" value="" style="shape=partialRectangle;html=1;whiteSpace=wrap;connectable=0;strokeColor=inherit;overflow=hidden;fillColor=none;top=0;left=0;bottom=0;right=0;pointerEvents=1;fontSize=16;" vertex="1" parent="7hdt7lljPyfR1eicb4f4-395">
          <mxGeometry x="14" width="12" height="8" as="geometry">
            <mxRectangle width="12" height="8" as="alternateBounds" />
          </mxGeometry>
        </mxCell>
        <mxCell id="7hdt7lljPyfR1eicb4f4-398" value="" style="shape=partialRectangle;html=1;whiteSpace=wrap;connectable=0;strokeColor=inherit;overflow=hidden;fillColor=none;top=0;left=0;bottom=0;right=0;pointerEvents=1;fontSize=16;" vertex="1" parent="7hdt7lljPyfR1eicb4f4-395">
          <mxGeometry x="26" width="14" height="8" as="geometry">
            <mxRectangle width="14" height="8" as="alternateBounds" />
          </mxGeometry>
        </mxCell>
        <mxCell id="7hdt7lljPyfR1eicb4f4-399" value="" style="shape=tableRow;horizontal=0;startSize=0;swimlaneHead=0;swimlaneBody=0;strokeColor=inherit;top=0;left=0;bottom=0;right=0;collapsible=0;dropTarget=0;fillColor=none;points=[[0,0.5],[1,0.5]];portConstraint=eastwest;fontSize=16;" vertex="1" parent="7hdt7lljPyfR1eicb4f4-394">
          <mxGeometry y="18" width="40" height="6" as="geometry" />
        </mxCell>
        <mxCell id="7hdt7lljPyfR1eicb4f4-400" value="" style="shape=partialRectangle;html=1;whiteSpace=wrap;connectable=0;strokeColor=inherit;overflow=hidden;fillColor=none;top=0;left=0;bottom=0;right=0;pointerEvents=1;fontSize=16;" vertex="1" parent="7hdt7lljPyfR1eicb4f4-399">
          <mxGeometry width="14" height="6" as="geometry">
            <mxRectangle width="14" height="6" as="alternateBounds" />
          </mxGeometry>
        </mxCell>
        <mxCell id="7hdt7lljPyfR1eicb4f4-401" value="" style="shape=partialRectangle;html=1;whiteSpace=wrap;connectable=0;strokeColor=inherit;overflow=hidden;fillColor=none;top=0;left=0;bottom=0;right=0;pointerEvents=1;fontSize=16;" vertex="1" parent="7hdt7lljPyfR1eicb4f4-399">
          <mxGeometry x="14" width="12" height="6" as="geometry">
            <mxRectangle width="12" height="6" as="alternateBounds" />
          </mxGeometry>
        </mxCell>
        <mxCell id="7hdt7lljPyfR1eicb4f4-402" value="" style="shape=partialRectangle;html=1;whiteSpace=wrap;connectable=0;strokeColor=inherit;overflow=hidden;fillColor=none;top=0;left=0;bottom=0;right=0;pointerEvents=1;fontSize=16;" vertex="1" parent="7hdt7lljPyfR1eicb4f4-399">
          <mxGeometry x="26" width="14" height="6" as="geometry">
            <mxRectangle width="14" height="6" as="alternateBounds" />
          </mxGeometry>
        </mxCell>
        <mxCell id="7hdt7lljPyfR1eicb4f4-403" value="" style="shape=tableRow;horizontal=0;startSize=0;swimlaneHead=0;swimlaneBody=0;strokeColor=inherit;top=0;left=0;bottom=0;right=0;collapsible=0;dropTarget=0;fillColor=none;points=[[0,0.5],[1,0.5]];portConstraint=eastwest;fontSize=16;" vertex="1" parent="7hdt7lljPyfR1eicb4f4-394">
          <mxGeometry y="24" width="40" height="6" as="geometry" />
        </mxCell>
        <mxCell id="7hdt7lljPyfR1eicb4f4-404" value="" style="shape=partialRectangle;html=1;whiteSpace=wrap;connectable=0;strokeColor=inherit;overflow=hidden;fillColor=none;top=0;left=0;bottom=0;right=0;pointerEvents=1;fontSize=16;" vertex="1" parent="7hdt7lljPyfR1eicb4f4-403">
          <mxGeometry width="14" height="6" as="geometry">
            <mxRectangle width="14" height="6" as="alternateBounds" />
          </mxGeometry>
        </mxCell>
        <mxCell id="7hdt7lljPyfR1eicb4f4-405" value="" style="shape=partialRectangle;html=1;whiteSpace=wrap;connectable=0;strokeColor=inherit;overflow=hidden;fillColor=none;top=0;left=0;bottom=0;right=0;pointerEvents=1;fontSize=16;" vertex="1" parent="7hdt7lljPyfR1eicb4f4-403">
          <mxGeometry x="14" width="12" height="6" as="geometry">
            <mxRectangle width="12" height="6" as="alternateBounds" />
          </mxGeometry>
        </mxCell>
        <mxCell id="7hdt7lljPyfR1eicb4f4-406" value="" style="shape=partialRectangle;html=1;whiteSpace=wrap;connectable=0;strokeColor=inherit;overflow=hidden;fillColor=none;top=0;left=0;bottom=0;right=0;pointerEvents=1;fontSize=16;" vertex="1" parent="7hdt7lljPyfR1eicb4f4-403">
          <mxGeometry x="26" width="14" height="6" as="geometry">
            <mxRectangle width="14" height="6" as="alternateBounds" />
          </mxGeometry>
        </mxCell>
      </root>
    </mxGraphModel>
  </diagram>
</mxfile>
